<mxfile host="app.diagrams.net" modified="2023-09-03T16:55:41.896Z" agent="Mozilla/5.0 (Windows NT 10.0; Win64; x64) AppleWebKit/537.36 (KHTML, like Gecko) Chrome/116.0.0.0 Safari/537.36 Edg/116.0.1938.69" etag="hlpCw5NhL2O8fjteoWWm" version="21.6.9" type="google" pages="3">
  <diagram name="Modelo Entidad Relación (Conceptual)" id="rr0RX_32oHJaKI3GwVZJ">
    <mxGraphModel dx="1379" dy="759" grid="1" gridSize="10" guides="1" tooltips="1" connect="1" arrows="1" fold="1" page="1" pageScale="1" pageWidth="1400" pageHeight="850" background="#ffffff" math="0" shadow="0">
      <root>
        <mxCell id="_abYnC6LDM-r_dlBOI30-0" />
        <mxCell id="_abYnC6LDM-r_dlBOI30-1" parent="_abYnC6LDM-r_dlBOI30-0" />
        <mxCell id="_abYnC6LDM-r_dlBOI30-2" value="&lt;u&gt;ID_Proceso &lt;/u&gt;" style="ellipse;whiteSpace=wrap;html=1;align=center;strokeWidth=1;" parent="_abYnC6LDM-r_dlBOI30-1" vertex="1">
          <mxGeometry x="420" y="125" width="100" height="40" as="geometry" />
        </mxCell>
        <mxCell id="_abYnC6LDM-r_dlBOI30-3" value="Nombre_Proceso" style="ellipse;whiteSpace=wrap;html=1;align=center;strokeWidth=1;" parent="_abYnC6LDM-r_dlBOI30-1" vertex="1">
          <mxGeometry x="530" y="125" width="100" height="40" as="geometry" />
        </mxCell>
        <mxCell id="_abYnC6LDM-r_dlBOI30-4" value="" style="endArrow=none;html=1;rounded=0;exitX=0.25;exitY=0;exitDx=0;exitDy=0;entryX=0.5;entryY=1;entryDx=0;entryDy=0;edgeStyle=orthogonalEdgeStyle;elbow=vertical;" parent="_abYnC6LDM-r_dlBOI30-1" source="_abYnC6LDM-r_dlBOI30-112" target="_abYnC6LDM-r_dlBOI30-2" edge="1">
          <mxGeometry relative="1" as="geometry">
            <mxPoint x="410" y="262" as="sourcePoint" />
            <mxPoint x="570" y="262" as="targetPoint" />
            <Array as="points">
              <mxPoint x="500" y="232" />
              <mxPoint x="500" y="198" />
              <mxPoint x="470" y="198" />
            </Array>
          </mxGeometry>
        </mxCell>
        <mxCell id="_abYnC6LDM-r_dlBOI30-5" value="" style="endArrow=none;html=1;rounded=0;exitX=0.5;exitY=0;exitDx=0;exitDy=0;entryX=0.5;entryY=1;entryDx=0;entryDy=0;edgeStyle=orthogonalEdgeStyle;" parent="_abYnC6LDM-r_dlBOI30-1" source="_abYnC6LDM-r_dlBOI30-112" target="_abYnC6LDM-r_dlBOI30-3" edge="1">
          <mxGeometry relative="1" as="geometry">
            <mxPoint x="435" y="172" as="sourcePoint" />
            <mxPoint x="360" y="92" as="targetPoint" />
            <Array as="points">
              <mxPoint x="540" y="232" />
              <mxPoint x="540" y="198" />
              <mxPoint x="580" y="198" />
            </Array>
          </mxGeometry>
        </mxCell>
        <mxCell id="_abYnC6LDM-r_dlBOI30-7" value="Nombre_Supervisor" style="ellipse;whiteSpace=wrap;html=1;align=center;strokeWidth=1;" parent="_abYnC6LDM-r_dlBOI30-1" vertex="1">
          <mxGeometry x="792.5" y="137.00000000000006" width="130" height="40" as="geometry" />
        </mxCell>
        <mxCell id="_abYnC6LDM-r_dlBOI30-8" value="" style="endArrow=none;html=1;rounded=0;exitX=0.25;exitY=0;exitDx=0;exitDy=0;entryX=0.5;entryY=1;entryDx=0;entryDy=0;edgeStyle=orthogonalEdgeStyle;" parent="_abYnC6LDM-r_dlBOI30-1" source="_abYnC6LDM-r_dlBOI30-6" target="_abYnC6LDM-r_dlBOI30-10" edge="1">
          <mxGeometry relative="1" as="geometry">
            <mxPoint x="890" y="461" as="sourcePoint" />
            <mxPoint x="1050" y="461" as="targetPoint" />
          </mxGeometry>
        </mxCell>
        <mxCell id="_abYnC6LDM-r_dlBOI30-10" value="Cedula_Supervisor " style="ellipse;whiteSpace=wrap;html=1;align=center;fontStyle=4;strokeWidth=1;" parent="_abYnC6LDM-r_dlBOI30-1" vertex="1">
          <mxGeometry x="665" y="137" width="120" height="40" as="geometry" />
        </mxCell>
        <mxCell id="_abYnC6LDM-r_dlBOI30-13" value="" style="endArrow=none;html=1;rounded=0;exitX=0.25;exitY=1;exitDx=0;exitDy=0;entryX=0.5;entryY=0;entryDx=0;entryDy=0;edgeStyle=orthogonalEdgeStyle;" parent="_abYnC6LDM-r_dlBOI30-1" source="_abYnC6LDM-r_dlBOI30-11" target="_abYnC6LDM-r_dlBOI30-15" edge="1">
          <mxGeometry relative="1" as="geometry">
            <mxPoint x="450" y="522" as="sourcePoint" />
            <mxPoint x="610" y="522" as="targetPoint" />
          </mxGeometry>
        </mxCell>
        <mxCell id="_abYnC6LDM-r_dlBOI30-16" value="Nombre_Referencia" style="ellipse;whiteSpace=wrap;html=1;align=center;strokeWidth=1;" parent="_abYnC6LDM-r_dlBOI30-1" vertex="1">
          <mxGeometry x="830" y="377.88000000000005" width="130" height="40" as="geometry" />
        </mxCell>
        <mxCell id="_abYnC6LDM-r_dlBOI30-17" value="" style="endArrow=none;html=1;rounded=0;exitX=0.25;exitY=0;exitDx=0;exitDy=0;entryX=0.5;entryY=1;entryDx=0;entryDy=0;edgeStyle=orthogonalEdgeStyle;" parent="_abYnC6LDM-r_dlBOI30-1" source="_abYnC6LDM-r_dlBOI30-132" target="_abYnC6LDM-r_dlBOI30-18" edge="1">
          <mxGeometry relative="1" as="geometry">
            <mxPoint x="840" y="547.1300000000001" as="sourcePoint" />
            <mxPoint x="1000" y="547.1300000000001" as="targetPoint" />
          </mxGeometry>
        </mxCell>
        <mxCell id="_abYnC6LDM-r_dlBOI30-18" value="ID_Referencia" style="ellipse;whiteSpace=wrap;html=1;align=center;fontStyle=4;strokeWidth=1;" parent="_abYnC6LDM-r_dlBOI30-1" vertex="1">
          <mxGeometry x="720" y="377.88000000000005" width="100" height="40" as="geometry" />
        </mxCell>
        <mxCell id="_abYnC6LDM-r_dlBOI30-28" value="ID_Turno" style="ellipse;whiteSpace=wrap;html=1;align=center;fontStyle=4;strokeWidth=1;" parent="_abYnC6LDM-r_dlBOI30-1" vertex="1">
          <mxGeometry x="960" y="137" width="100" height="40" as="geometry" />
        </mxCell>
        <mxCell id="_abYnC6LDM-r_dlBOI30-30" value="" style="endArrow=none;html=1;rounded=0;exitX=0.75;exitY=0;exitDx=0;exitDy=0;entryX=0.5;entryY=1;entryDx=0;entryDy=0;edgeStyle=orthogonalEdgeStyle;" parent="_abYnC6LDM-r_dlBOI30-1" source="_abYnC6LDM-r_dlBOI30-96" target="_abYnC6LDM-r_dlBOI30-31" edge="1">
          <mxGeometry relative="1" as="geometry">
            <mxPoint x="1371" y="254.25" as="sourcePoint" />
            <mxPoint x="1391" y="114.25" as="targetPoint" />
            <Array as="points">
              <mxPoint x="1120" y="231" />
              <mxPoint x="1120" y="207" />
              <mxPoint x="1136" y="207" />
            </Array>
          </mxGeometry>
        </mxCell>
        <mxCell id="_abYnC6LDM-r_dlBOI30-31" value="Hora_Inicio" style="ellipse;whiteSpace=wrap;html=1;align=center;strokeWidth=1;" parent="_abYnC6LDM-r_dlBOI30-1" vertex="1">
          <mxGeometry x="1071" y="137" width="130" height="40" as="geometry" />
        </mxCell>
        <mxCell id="_abYnC6LDM-r_dlBOI30-32" value="Hora_Fin" style="ellipse;whiteSpace=wrap;html=1;align=center;strokeWidth=1;" parent="_abYnC6LDM-r_dlBOI30-1" vertex="1">
          <mxGeometry x="1161.5" y="181.62000000000003" width="130" height="40" as="geometry" />
        </mxCell>
        <mxCell id="_abYnC6LDM-r_dlBOI30-33" value="Materia Prima" style="whiteSpace=wrap;html=1;align=center;strokeWidth=1;" parent="_abYnC6LDM-r_dlBOI30-1" vertex="1">
          <mxGeometry x="1030" y="532.6300000000001" width="100" height="40" as="geometry" />
        </mxCell>
        <mxCell id="_abYnC6LDM-r_dlBOI30-34" value="Nombre_MateriaPrima" style="ellipse;whiteSpace=wrap;html=1;align=center;strokeWidth=1;" parent="_abYnC6LDM-r_dlBOI30-1" vertex="1">
          <mxGeometry x="1200" y="548.69" width="140" height="40" as="geometry" />
        </mxCell>
        <mxCell id="_abYnC6LDM-r_dlBOI30-35" value="" style="endArrow=none;html=1;rounded=0;exitX=1;exitY=0.25;exitDx=0;exitDy=0;entryX=0;entryY=0.5;entryDx=0;entryDy=0;edgeStyle=orthogonalEdgeStyle;" parent="_abYnC6LDM-r_dlBOI30-1" source="_abYnC6LDM-r_dlBOI30-33" target="_abYnC6LDM-r_dlBOI30-37" edge="1">
          <mxGeometry relative="1" as="geometry">
            <mxPoint x="1100" y="622.6300000000001" as="sourcePoint" />
            <mxPoint x="1260" y="622.6300000000001" as="targetPoint" />
          </mxGeometry>
        </mxCell>
        <mxCell id="_abYnC6LDM-r_dlBOI30-36" value="" style="endArrow=none;html=1;rounded=0;exitX=1;exitY=0.5;exitDx=0;exitDy=0;entryX=0;entryY=0.5;entryDx=0;entryDy=0;edgeStyle=orthogonalEdgeStyle;" parent="_abYnC6LDM-r_dlBOI30-1" source="_abYnC6LDM-r_dlBOI30-33" target="_abYnC6LDM-r_dlBOI30-34" edge="1">
          <mxGeometry relative="1" as="geometry">
            <mxPoint x="1125" y="532.6300000000001" as="sourcePoint" />
            <mxPoint x="1050" y="452.63000000000005" as="targetPoint" />
          </mxGeometry>
        </mxCell>
        <mxCell id="_abYnC6LDM-r_dlBOI30-37" value="ID_MateriaPrima " style="ellipse;whiteSpace=wrap;html=1;align=center;fontStyle=4;strokeWidth=1;" parent="_abYnC6LDM-r_dlBOI30-1" vertex="1">
          <mxGeometry x="1200" y="502.13000000000005" width="100" height="40" as="geometry" />
        </mxCell>
        <mxCell id="_abYnC6LDM-r_dlBOI30-38" value="" style="endArrow=none;html=1;rounded=0;exitX=1;exitY=0.75;exitDx=0;exitDy=0;entryX=0;entryY=0.5;entryDx=0;entryDy=0;edgeStyle=orthogonalEdgeStyle;" parent="_abYnC6LDM-r_dlBOI30-1" source="_abYnC6LDM-r_dlBOI30-33" target="_abYnC6LDM-r_dlBOI30-39" edge="1">
          <mxGeometry relative="1" as="geometry">
            <mxPoint x="1180" y="612.6300000000001" as="sourcePoint" />
            <mxPoint x="1200" y="472.63000000000005" as="targetPoint" />
            <Array as="points">
              <mxPoint x="1150" y="563" />
              <mxPoint x="1150" y="612" />
            </Array>
          </mxGeometry>
        </mxCell>
        <mxCell id="_abYnC6LDM-r_dlBOI30-39" value="Stock_Mínimo" style="ellipse;whiteSpace=wrap;html=1;align=center;strokeWidth=1;" parent="_abYnC6LDM-r_dlBOI30-1" vertex="1">
          <mxGeometry x="1201" y="596.69" width="120" height="30.31" as="geometry" />
        </mxCell>
        <mxCell id="_abYnC6LDM-r_dlBOI30-40" value="Proveedor" style="whiteSpace=wrap;html=1;align=center;strokeWidth=1;" parent="_abYnC6LDM-r_dlBOI30-1" vertex="1">
          <mxGeometry x="1030" y="337.13000000000005" width="100" height="40" as="geometry" />
        </mxCell>
        <mxCell id="_abYnC6LDM-r_dlBOI30-41" value="Nombre_Proveedor" style="ellipse;whiteSpace=wrap;html=1;align=center;strokeWidth=1;" parent="_abYnC6LDM-r_dlBOI30-1" vertex="1">
          <mxGeometry x="1170" y="338.88000000000005" width="130" height="40" as="geometry" />
        </mxCell>
        <mxCell id="_abYnC6LDM-r_dlBOI30-42" value="" style="endArrow=none;html=1;rounded=0;entryX=0;entryY=0.5;entryDx=0;entryDy=0;edgeStyle=orthogonalEdgeStyle;exitX=1;exitY=0.25;exitDx=0;exitDy=0;" parent="_abYnC6LDM-r_dlBOI30-1" source="_abYnC6LDM-r_dlBOI30-40" target="_abYnC6LDM-r_dlBOI30-44" edge="1">
          <mxGeometry relative="1" as="geometry">
            <mxPoint x="1090" y="240.94" as="sourcePoint" />
            <mxPoint x="1230" y="330.94" as="targetPoint" />
          </mxGeometry>
        </mxCell>
        <mxCell id="_abYnC6LDM-r_dlBOI30-43" value="" style="endArrow=none;html=1;rounded=0;exitX=1;exitY=0.5;exitDx=0;exitDy=0;entryX=0;entryY=0.5;entryDx=0;entryDy=0;edgeStyle=orthogonalEdgeStyle;" parent="_abYnC6LDM-r_dlBOI30-1" source="_abYnC6LDM-r_dlBOI30-40" target="_abYnC6LDM-r_dlBOI30-41" edge="1">
          <mxGeometry relative="1" as="geometry">
            <mxPoint x="1095" y="337.13000000000005" as="sourcePoint" />
            <mxPoint x="1020" y="257.13000000000005" as="targetPoint" />
          </mxGeometry>
        </mxCell>
        <mxCell id="_abYnC6LDM-r_dlBOI30-44" value="ID_Proveedor " style="ellipse;whiteSpace=wrap;html=1;align=center;fontStyle=4;strokeWidth=1;" parent="_abYnC6LDM-r_dlBOI30-1" vertex="1">
          <mxGeometry x="1169" y="296.26" width="115" height="40" as="geometry" />
        </mxCell>
        <mxCell id="_abYnC6LDM-r_dlBOI30-45" value="" style="endArrow=none;html=1;rounded=0;entryX=0;entryY=0.5;entryDx=0;entryDy=0;edgeStyle=orthogonalEdgeStyle;exitX=1;exitY=0.75;exitDx=0;exitDy=0;" parent="_abYnC6LDM-r_dlBOI30-1" source="_abYnC6LDM-r_dlBOI30-40" target="_abYnC6LDM-r_dlBOI30-46" edge="1">
          <mxGeometry relative="1" as="geometry">
            <mxPoint x="1105" y="337.13000000000005" as="sourcePoint" />
            <mxPoint x="1199.1224702875097" y="261.29806064650455" as="targetPoint" />
            <Array as="points">
              <mxPoint x="1150" y="367" />
              <mxPoint x="1150" y="410" />
            </Array>
          </mxGeometry>
        </mxCell>
        <mxCell id="_abYnC6LDM-r_dlBOI30-46" value="Tipo_Proveedor " style="ellipse;whiteSpace=wrap;html=1;align=center;strokeWidth=1;" parent="_abYnC6LDM-r_dlBOI30-1" vertex="1">
          <mxGeometry x="1170" y="384.44000000000005" width="130" height="40" as="geometry" />
        </mxCell>
        <mxCell id="_abYnC6LDM-r_dlBOI30-47" value="Fecha_Hora_Inicio_Trabajo" style="ellipse;whiteSpace=wrap;html=1;align=center;strokeWidth=1;" parent="_abYnC6LDM-r_dlBOI30-1" vertex="1">
          <mxGeometry x="220" y="522.23" width="160" height="40" as="geometry" />
        </mxCell>
        <mxCell id="_abYnC6LDM-r_dlBOI30-48" value="" style="endArrow=none;html=1;rounded=0;edgeStyle=orthogonalEdgeStyle;exitX=0.5;exitY=1;exitDx=0;exitDy=0;" parent="_abYnC6LDM-r_dlBOI30-1" source="_abYnC6LDM-r_dlBOI30-73" target="_abYnC6LDM-r_dlBOI30-47" edge="1">
          <mxGeometry relative="1" as="geometry">
            <mxPoint x="480" y="647" as="sourcePoint" />
            <mxPoint x="166.98000000000002" y="731.69" as="targetPoint" />
          </mxGeometry>
        </mxCell>
        <mxCell id="_abYnC6LDM-r_dlBOI30-49" value="Suministra" style="shape=rhombus;perimeter=rhombusPerimeter;whiteSpace=wrap;html=1;align=center;strokeWidth=1;" parent="_abYnC6LDM-r_dlBOI30-1" vertex="1">
          <mxGeometry x="1031.5" y="417.88" width="97.5" height="67.06" as="geometry" />
        </mxCell>
        <mxCell id="_abYnC6LDM-r_dlBOI30-50" value="" style="shape=link;html=1;rounded=0;elbow=vertical;exitX=0.5;exitY=1;exitDx=0;exitDy=0;edgeStyle=orthogonalEdgeStyle;entryX=0.5;entryY=0;entryDx=0;entryDy=0;" parent="_abYnC6LDM-r_dlBOI30-1" source="_abYnC6LDM-r_dlBOI30-49" target="_abYnC6LDM-r_dlBOI30-33" edge="1">
          <mxGeometry relative="1" as="geometry">
            <mxPoint x="1080" y="711.1800000000001" as="sourcePoint" />
            <mxPoint x="1090" y="527.1300000000001" as="targetPoint" />
          </mxGeometry>
        </mxCell>
        <mxCell id="_abYnC6LDM-r_dlBOI30-51" value="" style="endArrow=none;html=1;rounded=0;edgeStyle=orthogonalEdgeStyle;entryX=0.5;entryY=1;entryDx=0;entryDy=0;exitX=0.5;exitY=0;exitDx=0;exitDy=0;shape=link;" parent="_abYnC6LDM-r_dlBOI30-1" source="_abYnC6LDM-r_dlBOI30-49" target="_abYnC6LDM-r_dlBOI30-40" edge="1">
          <mxGeometry relative="1" as="geometry">
            <mxPoint x="1355" y="504.88000000000005" as="sourcePoint" />
            <mxPoint x="1335" y="444.88000000000005" as="targetPoint" />
          </mxGeometry>
        </mxCell>
        <mxCell id="_abYnC6LDM-r_dlBOI30-57" value="" style="resizable=0;html=1;align=right;verticalAlign=bottom;dashed=1;strokeWidth=0;" parent="_abYnC6LDM-r_dlBOI30-1" connectable="0" vertex="1">
          <mxGeometry x="950" y="270.69" as="geometry">
            <mxPoint x="68" y="42" as="offset" />
          </mxGeometry>
        </mxCell>
        <mxCell id="_abYnC6LDM-r_dlBOI30-58" value="Tiene asignado" style="shape=rhombus;perimeter=rhombusPerimeter;whiteSpace=wrap;html=1;align=center;strokeWidth=1;" parent="_abYnC6LDM-r_dlBOI30-1" vertex="1">
          <mxGeometry x="475" y="336.5" width="80" height="70" as="geometry" />
        </mxCell>
        <mxCell id="_abYnC6LDM-r_dlBOI30-59" value="" style="endArrow=none;html=1;rounded=0;exitX=0.5;exitY=0;exitDx=0;exitDy=0;entryX=0.5;entryY=1;entryDx=0;entryDy=0;edgeStyle=orthogonalEdgeStyle;shape=link;" parent="_abYnC6LDM-r_dlBOI30-1" source="_abYnC6LDM-r_dlBOI30-58" target="_abYnC6LDM-r_dlBOI30-112" edge="1">
          <mxGeometry relative="1" as="geometry">
            <mxPoint x="330" y="352" as="sourcePoint" />
            <mxPoint x="565" y="247" as="targetPoint" />
          </mxGeometry>
        </mxCell>
        <mxCell id="_abYnC6LDM-r_dlBOI30-61" value="contiene" style="shape=rhombus;perimeter=rhombusPerimeter;whiteSpace=wrap;html=1;align=center;strokeWidth=1;" parent="_abYnC6LDM-r_dlBOI30-1" vertex="1">
          <mxGeometry x="656.5" y="432.38000000000005" width="80" height="70" as="geometry" />
        </mxCell>
        <mxCell id="_abYnC6LDM-r_dlBOI30-62" value="" style="shape=link;html=1;rounded=0;elbow=vertical;exitX=0;exitY=0.5;exitDx=0;exitDy=0;entryX=1;entryY=0.5;entryDx=0;entryDy=0;edgeStyle=orthogonalEdgeStyle;" parent="_abYnC6LDM-r_dlBOI30-1" source="_abYnC6LDM-r_dlBOI30-61" target="_abYnC6LDM-r_dlBOI30-11" edge="1">
          <mxGeometry relative="1" as="geometry">
            <mxPoint x="420" y="462" as="sourcePoint" />
            <mxPoint x="250" y="285" as="targetPoint" />
          </mxGeometry>
        </mxCell>
        <mxCell id="_abYnC6LDM-r_dlBOI30-65" value="" style="shape=link;html=1;rounded=0;elbow=vertical;exitX=0;exitY=0.5;exitDx=0;exitDy=0;entryX=1;entryY=0.5;entryDx=0;entryDy=0;edgeStyle=orthogonalEdgeStyle;" parent="_abYnC6LDM-r_dlBOI30-1" source="_abYnC6LDM-r_dlBOI30-11" target="_abYnC6LDM-r_dlBOI30-73" edge="1">
          <mxGeometry relative="1" as="geometry">
            <mxPoint x="610" y="502" as="sourcePoint" />
            <mxPoint x="430" y="510.19000000000005" as="targetPoint" />
          </mxGeometry>
        </mxCell>
        <mxCell id="_abYnC6LDM-r_dlBOI30-71" value="" style="shape=link;html=1;rounded=0;elbow=vertical;exitX=0;exitY=0.5;exitDx=0;exitDy=0;entryX=1;entryY=0.5;entryDx=0;entryDy=0;edgeStyle=orthogonalEdgeStyle;" parent="_abYnC6LDM-r_dlBOI30-1" source="_abYnC6LDM-r_dlBOI30-112" target="_abYnC6LDM-r_dlBOI30-106" edge="1">
          <mxGeometry relative="1" as="geometry">
            <mxPoint x="-80" y="287" as="sourcePoint" />
            <mxPoint x="320" y="267" as="targetPoint" />
          </mxGeometry>
        </mxCell>
        <mxCell id="_abYnC6LDM-r_dlBOI30-73" value="Interviene" style="shape=rhombus;perimeter=rhombusPerimeter;whiteSpace=wrap;html=1;align=center;strokeWidth=1;" parent="_abYnC6LDM-r_dlBOI30-1" vertex="1">
          <mxGeometry x="330" y="436.57" width="70" height="60" as="geometry" />
        </mxCell>
        <mxCell id="_abYnC6LDM-r_dlBOI30-76" value="Emplea" style="shape=rhombus;perimeter=rhombusPerimeter;whiteSpace=wrap;html=1;align=center;strokeWidth=1;" parent="_abYnC6LDM-r_dlBOI30-1" vertex="1">
          <mxGeometry x="842" y="526.38" width="65" height="51.88" as="geometry" />
        </mxCell>
        <mxCell id="_abYnC6LDM-r_dlBOI30-77" value="" style="shape=link;html=1;rounded=0;elbow=vertical;exitX=0.75;exitY=1;exitDx=0;exitDy=0;entryX=0.5;entryY=0;entryDx=0;entryDy=0;" parent="_abYnC6LDM-r_dlBOI30-1" source="_abYnC6LDM-r_dlBOI30-132" target="_abYnC6LDM-r_dlBOI30-76" edge="1">
          <mxGeometry relative="1" as="geometry">
            <mxPoint x="510" y="252.13000000000005" as="sourcePoint" />
            <mxPoint x="670" y="252.13000000000005" as="targetPoint" />
          </mxGeometry>
        </mxCell>
        <mxCell id="_abYnC6LDM-r_dlBOI30-81" value="" style="shape=link;html=1;rounded=0;elbow=vertical;exitX=0.5;exitY=1;exitDx=0;exitDy=0;edgeStyle=orthogonalEdgeStyle;" parent="_abYnC6LDM-r_dlBOI30-1" source="_abYnC6LDM-r_dlBOI30-106" target="_abYnC6LDM-r_dlBOI30-119" edge="1">
          <mxGeometry relative="1" as="geometry">
            <mxPoint x="395" y="222" as="sourcePoint" />
            <mxPoint x="295" y="337.44000000000005" as="targetPoint" />
          </mxGeometry>
        </mxCell>
        <mxCell id="_abYnC6LDM-r_dlBOI30-83" value="" style="shape=link;html=1;rounded=0;elbow=vertical;edgeStyle=orthogonalEdgeStyle;entryX=1;entryY=0.5;entryDx=0;entryDy=0;exitX=0;exitY=0.5;exitDx=0;exitDy=0;" parent="_abYnC6LDM-r_dlBOI30-1" source="_abYnC6LDM-r_dlBOI30-56" target="_abYnC6LDM-r_dlBOI30-112" edge="1">
          <mxGeometry relative="1" as="geometry">
            <mxPoint x="680" y="207" as="sourcePoint" />
            <mxPoint x="685" y="232" as="targetPoint" />
          </mxGeometry>
        </mxCell>
        <mxCell id="_abYnC6LDM-r_dlBOI30-84" value="Trabaja" style="shape=rhombus;perimeter=rhombusPerimeter;whiteSpace=wrap;html=1;align=center;strokeWidth=1;" parent="_abYnC6LDM-r_dlBOI30-1" vertex="1">
          <mxGeometry x="910" y="227.12000000000015" width="55" height="47.14" as="geometry" />
        </mxCell>
        <mxCell id="_abYnC6LDM-r_dlBOI30-85" value="" style="shape=link;html=1;rounded=0;elbow=vertical;edgeStyle=orthogonalEdgeStyle;entryX=1;entryY=0.5;entryDx=0;entryDy=0;exitX=0;exitY=0.5;exitDx=0;exitDy=0;" parent="_abYnC6LDM-r_dlBOI30-1" source="_abYnC6LDM-r_dlBOI30-96" target="_abYnC6LDM-r_dlBOI30-84" edge="1">
          <mxGeometry relative="1" as="geometry">
            <mxPoint x="901.0000000000002" y="315.25749999999994" as="sourcePoint" />
            <mxPoint x="761.14" y="401.25" as="targetPoint" />
          </mxGeometry>
        </mxCell>
        <mxCell id="_abYnC6LDM-r_dlBOI30-86" value="" style="endArrow=none;html=1;rounded=0;exitX=1;exitY=0.5;exitDx=0;exitDy=0;edgeStyle=orthogonalEdgeStyle;entryX=0;entryY=0.5;entryDx=0;entryDy=0;shape=link;" parent="_abYnC6LDM-r_dlBOI30-1" source="_abYnC6LDM-r_dlBOI30-61" target="_abYnC6LDM-r_dlBOI30-132" edge="1">
          <mxGeometry relative="1" as="geometry">
            <mxPoint x="760" y="426.94" as="sourcePoint" />
            <mxPoint x="770" y="426.69" as="targetPoint" />
          </mxGeometry>
        </mxCell>
        <mxCell id="_abYnC6LDM-r_dlBOI30-87" value="" style="endArrow=none;html=1;rounded=0;exitX=0.5;exitY=0;exitDx=0;exitDy=0;entryX=0.5;entryY=1;entryDx=0;entryDy=0;edgeStyle=orthogonalEdgeStyle;" parent="_abYnC6LDM-r_dlBOI30-1" source="_abYnC6LDM-r_dlBOI30-132" target="_abYnC6LDM-r_dlBOI30-16" edge="1">
          <mxGeometry relative="1" as="geometry">
            <mxPoint x="920" y="487.88000000000005" as="sourcePoint" />
            <mxPoint x="990" y="506.88000000000005" as="targetPoint" />
          </mxGeometry>
        </mxCell>
        <mxCell id="_abYnC6LDM-r_dlBOI30-94" value="" style="shape=link;html=1;rounded=0;elbow=vertical;edgeStyle=orthogonalEdgeStyle;exitX=0;exitY=0.5;exitDx=0;exitDy=0;" parent="_abYnC6LDM-r_dlBOI30-1" source="_abYnC6LDM-r_dlBOI30-84" target="_abYnC6LDM-r_dlBOI30-6" edge="1">
          <mxGeometry relative="1" as="geometry">
            <mxPoint x="215" y="-415" as="sourcePoint" />
            <mxPoint x="740" y="217" as="targetPoint" />
          </mxGeometry>
        </mxCell>
        <mxCell id="kdAgWZ6vZiGVHkgTjAJX-1" value="" style="endArrow=none;html=1;rounded=0;exitX=0.25;exitY=1;exitDx=0;exitDy=0;edgeStyle=orthogonalEdgeStyle;entryX=0.5;entryY=0;entryDx=0;entryDy=0;entryPerimeter=0;" parent="_abYnC6LDM-r_dlBOI30-1" source="_abYnC6LDM-r_dlBOI30-132" target="kdAgWZ6vZiGVHkgTjAJX-0" edge="1">
          <mxGeometry relative="1" as="geometry">
            <mxPoint x="680" y="416.69" as="sourcePoint" />
            <mxPoint x="810" y="477.69" as="targetPoint" />
          </mxGeometry>
        </mxCell>
        <mxCell id="kdAgWZ6vZiGVHkgTjAJX-6" value="" style="group" parent="_abYnC6LDM-r_dlBOI30-1" vertex="1" connectable="0">
          <mxGeometry x="640" y="516.69" width="252.5" height="146.19000000000005" as="geometry" />
        </mxCell>
        <mxCell id="kdAgWZ6vZiGVHkgTjAJX-0" value="&lt;br&gt;&lt;br&gt;Se clasifica &lt;br&gt;como" style="strokeWidth=1;html=1;shape=mxgraph.flowchart.extract_or_measurement;whiteSpace=wrap;strokeColor=default;fontFamily=Helvetica;fontSize=12;fontColor=default;fillColor=default;" parent="kdAgWZ6vZiGVHkgTjAJX-6" vertex="1">
          <mxGeometry x="72.5" width="105" height="59" as="geometry" />
        </mxCell>
        <mxCell id="kdAgWZ6vZiGVHkgTjAJX-2" value="Prendas de Lujo" style="whiteSpace=wrap;html=1;align=center;strokeColor=default;fontFamily=Helvetica;fontSize=12;fontColor=default;fillColor=default;" parent="kdAgWZ6vZiGVHkgTjAJX-6" vertex="1">
          <mxGeometry y="106.19000000000005" width="100" height="40" as="geometry" />
        </mxCell>
        <mxCell id="kdAgWZ6vZiGVHkgTjAJX-3" value="Prendas Ordinaria" style="whiteSpace=wrap;html=1;align=center;strokeColor=default;fontFamily=Helvetica;fontSize=12;fontColor=default;fillColor=default;" parent="kdAgWZ6vZiGVHkgTjAJX-6" vertex="1">
          <mxGeometry x="152.5" y="106.19000000000005" width="100" height="40" as="geometry" />
        </mxCell>
        <mxCell id="kdAgWZ6vZiGVHkgTjAJX-4" value="" style="endArrow=none;html=1;rounded=0;exitX=0.5;exitY=0;exitDx=0;exitDy=0;edgeStyle=orthogonalEdgeStyle;entryX=0.5;entryY=1;entryDx=0;entryDy=0;entryPerimeter=0;" parent="kdAgWZ6vZiGVHkgTjAJX-6" source="kdAgWZ6vZiGVHkgTjAJX-2" target="kdAgWZ6vZiGVHkgTjAJX-0" edge="1">
          <mxGeometry relative="1" as="geometry">
            <mxPoint x="730" y="510" as="sourcePoint" />
            <mxPoint x="860" y="571" as="targetPoint" />
          </mxGeometry>
        </mxCell>
        <mxCell id="kdAgWZ6vZiGVHkgTjAJX-5" value="" style="endArrow=none;html=1;rounded=0;exitX=0.5;exitY=1;exitDx=0;exitDy=0;edgeStyle=orthogonalEdgeStyle;entryX=0.5;entryY=0;entryDx=0;entryDy=0;exitPerimeter=0;" parent="kdAgWZ6vZiGVHkgTjAJX-6" source="kdAgWZ6vZiGVHkgTjAJX-0" target="kdAgWZ6vZiGVHkgTjAJX-3" edge="1">
          <mxGeometry relative="1" as="geometry">
            <mxPoint x="740" y="520" as="sourcePoint" />
            <mxPoint x="870" y="581" as="targetPoint" />
          </mxGeometry>
        </mxCell>
        <mxCell id="_abYnC6LDM-r_dlBOI30-22" value="" style="endArrow=none;html=1;rounded=0;exitX=0;exitY=0.25;exitDx=0;exitDy=0;entryX=1;entryY=0.5;entryDx=0;entryDy=0;edgeStyle=orthogonalEdgeStyle;" parent="_abYnC6LDM-r_dlBOI30-1" source="_abYnC6LDM-r_dlBOI30-119" target="_abYnC6LDM-r_dlBOI30-24" edge="1">
          <mxGeometry relative="1" as="geometry">
            <mxPoint x="115" y="207.75" as="sourcePoint" />
            <mxPoint x="275" y="207.75" as="targetPoint" />
          </mxGeometry>
        </mxCell>
        <mxCell id="_abYnC6LDM-r_dlBOI30-23" value="" style="endArrow=none;html=1;rounded=0;exitX=0;exitY=0.75;exitDx=0;exitDy=0;entryX=1;entryY=0.5;entryDx=0;entryDy=0;edgeStyle=orthogonalEdgeStyle;" parent="_abYnC6LDM-r_dlBOI30-1" source="_abYnC6LDM-r_dlBOI30-119" target="_abYnC6LDM-r_dlBOI30-21" edge="1">
          <mxGeometry relative="1" as="geometry">
            <mxPoint x="140" y="117.75" as="sourcePoint" />
            <mxPoint x="65" y="37.75" as="targetPoint" />
          </mxGeometry>
        </mxCell>
        <mxCell id="_abYnC6LDM-r_dlBOI30-24" value="Cedula_Operario" style="ellipse;whiteSpace=wrap;html=1;align=center;fontStyle=4;strokeWidth=1;" parent="_abYnC6LDM-r_dlBOI30-1" vertex="1">
          <mxGeometry x="180" y="309.38" width="110" height="40" as="geometry" />
        </mxCell>
        <mxCell id="_abYnC6LDM-r_dlBOI30-21" value="Nombre_Operario" style="ellipse;whiteSpace=wrap;html=1;align=center;strokeWidth=1;" parent="_abYnC6LDM-r_dlBOI30-1" vertex="1">
          <mxGeometry x="160" y="352.63" width="130" height="40" as="geometry" />
        </mxCell>
        <mxCell id="_abYnC6LDM-r_dlBOI30-106" value="Labora" style="shape=rhombus;perimeter=rhombusPerimeter;whiteSpace=wrap;html=1;align=center;strokeWidth=1;" parent="_abYnC6LDM-r_dlBOI30-1" vertex="1">
          <mxGeometry x="330" y="221.62" width="70" height="60" as="geometry" />
        </mxCell>
        <mxCell id="dZRLtnQoLTUifOjoXjhi-7" value="" style="group" parent="_abYnC6LDM-r_dlBOI30-1" vertex="1" connectable="0">
          <mxGeometry x="1031" y="227.12" width="120" height="46" as="geometry" />
        </mxCell>
        <mxCell id="_abYnC6LDM-r_dlBOI30-95" value="" style="group;strokeWidth=1;" parent="dZRLtnQoLTUifOjoXjhi-7" vertex="1" connectable="0">
          <mxGeometry width="120" height="46" as="geometry" />
        </mxCell>
        <mxCell id="_abYnC6LDM-r_dlBOI30-96" value="Turno Laboral" style="whiteSpace=wrap;html=1;align=center;strokeWidth=1;" parent="_abYnC6LDM-r_dlBOI30-95" vertex="1">
          <mxGeometry x="20" y="4" width="100" height="40" as="geometry" />
        </mxCell>
        <mxCell id="_abYnC6LDM-r_dlBOI30-97" value="M" style="text;strokeColor=none;fillColor=none;spacingLeft=4;spacingRight=4;overflow=hidden;rotatable=0;points=[[0,0.5],[1,0.5]];portConstraint=eastwest;fontSize=12;" parent="_abYnC6LDM-r_dlBOI30-95" vertex="1">
          <mxGeometry width="20" height="25.5" as="geometry" />
        </mxCell>
        <mxCell id="_abYnC6LDM-r_dlBOI30-98" value="1" style="text;strokeColor=none;fillColor=none;spacingLeft=4;spacingRight=4;overflow=hidden;rotatable=0;points=[[0,0.5],[1,0.5]];portConstraint=eastwest;fontSize=12;" parent="_abYnC6LDM-r_dlBOI30-95" vertex="1">
          <mxGeometry x="5" y="20.5" width="20" height="25.5" as="geometry" />
        </mxCell>
        <mxCell id="_abYnC6LDM-r_dlBOI30-26" value="" style="endArrow=none;html=1;rounded=0;exitX=0.25;exitY=0;exitDx=0;exitDy=0;entryX=0.5;entryY=1;entryDx=0;entryDy=0;edgeStyle=orthogonalEdgeStyle;" parent="_abYnC6LDM-r_dlBOI30-1" source="_abYnC6LDM-r_dlBOI30-96" target="_abYnC6LDM-r_dlBOI30-28" edge="1">
          <mxGeometry relative="1" as="geometry">
            <mxPoint x="476" y="73.38999999999999" as="sourcePoint" />
            <mxPoint x="636" y="73.38999999999999" as="targetPoint" />
          </mxGeometry>
        </mxCell>
        <mxCell id="_abYnC6LDM-r_dlBOI30-29" value="" style="endArrow=none;html=1;rounded=0;exitX=1;exitY=0.5;exitDx=0;exitDy=0;edgeStyle=orthogonalEdgeStyle;" parent="_abYnC6LDM-r_dlBOI30-1" source="_abYnC6LDM-r_dlBOI30-96" target="_abYnC6LDM-r_dlBOI30-32" edge="1">
          <mxGeometry relative="1" as="geometry">
            <mxPoint x="446" y="203.39" as="sourcePoint" />
            <mxPoint x="576" y="-26.610000000000014" as="targetPoint" />
          </mxGeometry>
        </mxCell>
        <mxCell id="WNh4Q_Ja9qAyePe3dlcC-0" value="1" style="text;strokeColor=none;fillColor=none;spacingLeft=4;spacingRight=4;overflow=hidden;rotatable=0;points=[[0,0.5],[1,0.5]];portConstraint=eastwest;fontSize=12;" parent="_abYnC6LDM-r_dlBOI30-1" vertex="1">
          <mxGeometry x="1010" y="526.3799999999999" width="25" height="28.21" as="geometry" />
        </mxCell>
        <mxCell id="WNh4Q_Ja9qAyePe3dlcC-2" value="M" style="text;strokeColor=none;fillColor=none;spacingLeft=4;spacingRight=4;overflow=hidden;rotatable=0;points=[[0,0.5],[1,0.5]];portConstraint=eastwest;fontSize=12;" parent="_abYnC6LDM-r_dlBOI30-1" vertex="1">
          <mxGeometry x="1010" y="551.6300000000001" width="20" height="25.5" as="geometry" />
        </mxCell>
        <mxCell id="WNh4Q_Ja9qAyePe3dlcC-5" value="" style="group" parent="_abYnC6LDM-r_dlBOI30-1" vertex="1" connectable="0">
          <mxGeometry x="780" y="444.88000000000005" width="120" height="70.41999999999996" as="geometry" />
        </mxCell>
        <mxCell id="_abYnC6LDM-r_dlBOI30-131" value="" style="group;strokeWidth=1;" parent="WNh4Q_Ja9qAyePe3dlcC-5" vertex="1" connectable="0">
          <mxGeometry width="120" height="45" as="geometry" />
        </mxCell>
        <mxCell id="_abYnC6LDM-r_dlBOI30-132" value="Referencia" style="whiteSpace=wrap;html=1;align=center;strokeWidth=1;" parent="_abYnC6LDM-r_dlBOI30-131" vertex="1">
          <mxGeometry x="20" y="2.5" width="100" height="40" as="geometry" />
        </mxCell>
        <mxCell id="_abYnC6LDM-r_dlBOI30-133" value="1" style="text;strokeColor=none;fillColor=none;spacingLeft=4;spacingRight=4;overflow=hidden;rotatable=0;points=[[0,0.5],[1,0.5]];portConstraint=eastwest;fontSize=12;" parent="_abYnC6LDM-r_dlBOI30-131" vertex="1">
          <mxGeometry y="15" width="40" height="30" as="geometry" />
        </mxCell>
        <mxCell id="_abYnC6LDM-r_dlBOI30-134" value="1" style="text;strokeColor=none;fillColor=none;spacingLeft=4;spacingRight=4;overflow=hidden;rotatable=0;points=[[0,0.5],[1,0.5]];portConstraint=eastwest;fontSize=12;" parent="_abYnC6LDM-r_dlBOI30-131" vertex="1">
          <mxGeometry width="40" height="30" as="geometry" />
        </mxCell>
        <mxCell id="WNh4Q_Ja9qAyePe3dlcC-1" value="M" style="text;strokeColor=none;fillColor=none;spacingLeft=4;spacingRight=4;overflow=hidden;rotatable=0;points=[[0,0.5],[1,0.5]];portConstraint=eastwest;fontSize=12;" parent="WNh4Q_Ja9qAyePe3dlcC-5" vertex="1">
          <mxGeometry x="95" y="42.20999999999992" width="25" height="28.21" as="geometry" />
        </mxCell>
        <mxCell id="WNh4Q_Ja9qAyePe3dlcC-3" value="1" style="text;strokeColor=none;fillColor=none;spacingLeft=4;spacingRight=4;overflow=hidden;rotatable=0;points=[[0,0.5],[1,0.5]];portConstraint=eastwest;fontSize=12;" parent="WNh4Q_Ja9qAyePe3dlcC-5" vertex="1">
          <mxGeometry x="70" y="42.210000000000036" width="20" height="25.06" as="geometry" />
        </mxCell>
        <mxCell id="WNh4Q_Ja9qAyePe3dlcC-6" value="1" style="text;strokeColor=none;fillColor=none;spacingLeft=4;spacingRight=4;overflow=hidden;rotatable=0;points=[[0,0.5],[1,0.5]];portConstraint=eastwest;fontSize=12;" parent="_abYnC6LDM-r_dlBOI30-1" vertex="1">
          <mxGeometry x="1085" y="511.1300000000001" width="15" height="20" as="geometry" />
        </mxCell>
        <mxCell id="WNh4Q_Ja9qAyePe3dlcC-7" value="M" style="text;strokeColor=none;fillColor=none;spacingLeft=4;spacingRight=4;overflow=hidden;rotatable=0;points=[[0,0.5],[1,0.5]];portConstraint=eastwest;fontSize=12;" parent="_abYnC6LDM-r_dlBOI30-1" vertex="1">
          <mxGeometry x="1080" y="371.69" width="20" height="25.5" as="geometry" />
        </mxCell>
        <mxCell id="WNh4Q_Ja9qAyePe3dlcC-8" value="1" style="text;strokeColor=none;fillColor=none;spacingLeft=4;spacingRight=4;overflow=hidden;rotatable=0;points=[[0,0.5],[1,0.5]];portConstraint=eastwest;fontSize=12;" parent="_abYnC6LDM-r_dlBOI30-1" vertex="1">
          <mxGeometry x="1065" y="372.19000000000005" width="15" height="20" as="geometry" />
        </mxCell>
        <mxCell id="WNh4Q_Ja9qAyePe3dlcC-9" value="M" style="text;strokeColor=none;fillColor=none;spacingLeft=4;spacingRight=4;overflow=hidden;rotatable=0;points=[[0,0.5],[1,0.5]];portConstraint=eastwest;fontSize=12;" parent="_abYnC6LDM-r_dlBOI30-1" vertex="1">
          <mxGeometry x="1060" y="511.19000000000005" width="20" height="25.5" as="geometry" />
        </mxCell>
        <mxCell id="WNh4Q_Ja9qAyePe3dlcC-10" value="Cantidad_Unidades" style="ellipse;whiteSpace=wrap;html=1;align=center;strokeWidth=1;" parent="_abYnC6LDM-r_dlBOI30-1" vertex="1">
          <mxGeometry x="520" y="516.69" width="130" height="40" as="geometry" />
        </mxCell>
        <mxCell id="WNh4Q_Ja9qAyePe3dlcC-12" value="" style="endArrow=none;html=1;rounded=0;fontFamily=Helvetica;fontSize=12;fontColor=default;exitX=0.5;exitY=1;exitDx=0;exitDy=0;entryX=0.5;entryY=0;entryDx=0;entryDy=0;edgeStyle=orthogonalEdgeStyle;" parent="_abYnC6LDM-r_dlBOI30-1" source="_abYnC6LDM-r_dlBOI30-11" target="WNh4Q_Ja9qAyePe3dlcC-10" edge="1">
          <mxGeometry relative="1" as="geometry">
            <mxPoint x="430" y="577" as="sourcePoint" />
            <mxPoint x="590" y="577" as="targetPoint" />
          </mxGeometry>
        </mxCell>
        <mxCell id="WNh4Q_Ja9qAyePe3dlcC-13" value="Cantidad" style="ellipse;whiteSpace=wrap;html=1;align=center;strokeWidth=1;" parent="_abYnC6LDM-r_dlBOI30-1" vertex="1">
          <mxGeometry x="1200" y="638.38" width="110" height="32.62" as="geometry" />
        </mxCell>
        <mxCell id="WNh4Q_Ja9qAyePe3dlcC-16" value="" style="endArrow=none;html=1;rounded=0;fontFamily=Helvetica;fontSize=12;fontColor=default;entryX=0;entryY=0.5;entryDx=0;entryDy=0;exitX=0.75;exitY=1;exitDx=0;exitDy=0;edgeStyle=orthogonalEdgeStyle;" parent="_abYnC6LDM-r_dlBOI30-1" source="_abYnC6LDM-r_dlBOI30-33" target="WNh4Q_Ja9qAyePe3dlcC-13" edge="1">
          <mxGeometry relative="1" as="geometry">
            <mxPoint x="680" y="386.69" as="sourcePoint" />
            <mxPoint x="840" y="386.69" as="targetPoint" />
          </mxGeometry>
        </mxCell>
        <mxCell id="WNh4Q_Ja9qAyePe3dlcC-23" value="" style="group" parent="_abYnC6LDM-r_dlBOI30-1" vertex="1" connectable="0">
          <mxGeometry x="440" y="227.12" width="125" height="69.13999999999999" as="geometry" />
        </mxCell>
        <mxCell id="_abYnC6LDM-r_dlBOI30-112" value="Proceso de Producción" style="whiteSpace=wrap;html=1;align=center;strokeWidth=1;" parent="WNh4Q_Ja9qAyePe3dlcC-23" vertex="1">
          <mxGeometry x="25" y="4.5" width="100" height="40" as="geometry" />
        </mxCell>
        <mxCell id="_abYnC6LDM-r_dlBOI30-113" value="" style="resizable=0;html=1;align=right;verticalAlign=bottom;dashed=1;strokeWidth=0;" parent="WNh4Q_Ja9qAyePe3dlcC-23" connectable="0" vertex="1">
          <mxGeometry x="150.00250136326872" y="34.495425496691496" as="geometry">
            <mxPoint x="-65" y="24" as="offset" />
          </mxGeometry>
        </mxCell>
        <mxCell id="_abYnC6LDM-r_dlBOI30-114" value="1" style="text;strokeColor=none;fillColor=none;spacingLeft=4;spacingRight=4;overflow=hidden;rotatable=0;points=[[0,0.5],[1,0.5]];portConstraint=eastwest;fontSize=12;" parent="WNh4Q_Ja9qAyePe3dlcC-23" vertex="1">
          <mxGeometry y="24.139999999999986" width="40" height="30" as="geometry" />
        </mxCell>
        <mxCell id="_abYnC6LDM-r_dlBOI30-115" value="1" style="text;strokeColor=none;fillColor=none;spacingLeft=4;spacingRight=4;overflow=hidden;rotatable=0;points=[[0,0.5],[1,0.5]];portConstraint=eastwest;fontSize=12;" parent="WNh4Q_Ja9qAyePe3dlcC-23" vertex="1">
          <mxGeometry width="40" height="30" as="geometry" />
        </mxCell>
        <mxCell id="WNh4Q_Ja9qAyePe3dlcC-18" value="1" style="text;strokeColor=none;fillColor=none;spacingLeft=4;spacingRight=4;overflow=hidden;rotatable=0;points=[[0,0.5],[1,0.5]];portConstraint=eastwest;fontSize=12;" parent="WNh4Q_Ja9qAyePe3dlcC-23" vertex="1">
          <mxGeometry x="80" y="44.5" width="15" height="20" as="geometry" />
        </mxCell>
        <mxCell id="WNh4Q_Ja9qAyePe3dlcC-21" value="M" style="text;strokeColor=none;fillColor=none;spacingLeft=4;spacingRight=4;overflow=hidden;rotatable=0;points=[[0,0.5],[1,0.5]];portConstraint=eastwest;fontSize=12;" parent="WNh4Q_Ja9qAyePe3dlcC-23" vertex="1">
          <mxGeometry x="52.5" y="43.639999999999986" width="20" height="25.5" as="geometry" />
        </mxCell>
        <mxCell id="_abYnC6LDM-r_dlBOI30-9" value="" style="endArrow=none;html=1;rounded=0;exitX=0.75;exitY=0;exitDx=0;exitDy=0;entryX=0.5;entryY=1;entryDx=0;entryDy=0;edgeStyle=orthogonalEdgeStyle;" parent="_abYnC6LDM-r_dlBOI30-1" source="_abYnC6LDM-r_dlBOI30-6" target="_abYnC6LDM-r_dlBOI30-7" edge="1">
          <mxGeometry relative="1" as="geometry">
            <mxPoint x="915" y="371" as="sourcePoint" />
            <mxPoint x="840" y="291" as="targetPoint" />
          </mxGeometry>
        </mxCell>
        <mxCell id="_abYnC6LDM-r_dlBOI30-15" value="ID_Lote" style="ellipse;whiteSpace=wrap;html=1;align=center;fontStyle=4;strokeWidth=1;" parent="_abYnC6LDM-r_dlBOI30-1" vertex="1">
          <mxGeometry x="405" y="514.59" width="100" height="40" as="geometry" />
        </mxCell>
        <mxCell id="DXSFYLd06Lns6tFT80R7-8" value="" style="group" parent="_abYnC6LDM-r_dlBOI30-1" vertex="1" connectable="0">
          <mxGeometry x="560" y="227.37" width="298" height="53.25" as="geometry" />
        </mxCell>
        <mxCell id="DXSFYLd06Lns6tFT80R7-2" value="" style="group" parent="DXSFYLd06Lns6tFT80R7-8" vertex="1" connectable="0">
          <mxGeometry width="278" height="53.25" as="geometry" />
        </mxCell>
        <mxCell id="DXSFYLd06Lns6tFT80R7-5" value="" style="group" parent="DXSFYLd06Lns6tFT80R7-2" vertex="1" connectable="0">
          <mxGeometry width="278" height="53.25" as="geometry" />
        </mxCell>
        <mxCell id="_abYnC6LDM-r_dlBOI30-6" value="Supervisor" style="whiteSpace=wrap;html=1;align=center;strokeWidth=1;" parent="DXSFYLd06Lns6tFT80R7-5" vertex="1">
          <mxGeometry x="178" y="3.9400000000000546" width="100" height="40" as="geometry" />
        </mxCell>
        <mxCell id="_abYnC6LDM-r_dlBOI30-55" value="" style="resizable=0;html=1;align=right;verticalAlign=bottom;dashed=1;strokeWidth=0;" parent="DXSFYLd06Lns6tFT80R7-5" connectable="0" vertex="1">
          <mxGeometry x="268" y="51" as="geometry">
            <mxPoint x="-268" y="-5" as="offset" />
          </mxGeometry>
        </mxCell>
        <mxCell id="dZRLtnQoLTUifOjoXjhi-1" value="M" style="text;strokeColor=none;fillColor=none;spacingLeft=4;spacingRight=4;overflow=hidden;rotatable=0;points=[[0,0.5],[1,0.5]];portConstraint=eastwest;fontSize=12;" parent="DXSFYLd06Lns6tFT80R7-5" vertex="1">
          <mxGeometry x="158" width="20" height="25.5" as="geometry" />
        </mxCell>
        <mxCell id="dZRLtnQoLTUifOjoXjhi-4" value="1" style="text;strokeColor=none;fillColor=none;spacingLeft=4;spacingRight=4;overflow=hidden;rotatable=0;points=[[0,0.5],[1,0.5]];portConstraint=eastwest;fontSize=12;" parent="DXSFYLd06Lns6tFT80R7-5" vertex="1">
          <mxGeometry x="158" y="23.25" width="40" height="30" as="geometry" />
        </mxCell>
        <mxCell id="_abYnC6LDM-r_dlBOI30-56" value="Supervisa" style="shape=rhombus;perimeter=rhombusPerimeter;whiteSpace=wrap;html=1;align=center;strokeWidth=1;" parent="DXSFYLd06Lns6tFT80R7-5" vertex="1">
          <mxGeometry x="80" y="-1.1299999999999955" width="65" height="50.14" as="geometry" />
        </mxCell>
        <mxCell id="_abYnC6LDM-r_dlBOI30-54" value="" style="shape=link;html=1;rounded=0;elbow=vertical;exitX=0;exitY=0.5;exitDx=0;exitDy=0;edgeStyle=orthogonalEdgeStyle;entryX=1;entryY=0.5;entryDx=0;entryDy=0;" parent="DXSFYLd06Lns6tFT80R7-5" source="_abYnC6LDM-r_dlBOI30-6" target="_abYnC6LDM-r_dlBOI30-56" edge="1">
          <mxGeometry relative="1" as="geometry">
            <mxPoint x="-30" y="-57" as="sourcePoint" />
            <mxPoint x="120" y="140.25" as="targetPoint" />
          </mxGeometry>
        </mxCell>
        <mxCell id="dZRLtnQoLTUifOjoXjhi-3" value="1" style="text;strokeColor=none;fillColor=none;spacingLeft=4;spacingRight=4;overflow=hidden;rotatable=0;points=[[0,0.5],[1,0.5]];portConstraint=eastwest;fontSize=12;" parent="DXSFYLd06Lns6tFT80R7-5" vertex="1">
          <mxGeometry x="10" y="-1.8700000000000117" width="20" height="29.25" as="geometry" />
        </mxCell>
        <mxCell id="dZRLtnQoLTUifOjoXjhi-2" value="M" style="text;strokeColor=none;fillColor=none;spacingLeft=4;spacingRight=4;overflow=hidden;rotatable=0;points=[[0,0.5],[1,0.5]];portConstraint=eastwest;fontSize=12;" parent="DXSFYLd06Lns6tFT80R7-5" vertex="1">
          <mxGeometry x="10" y="23.24999999999999" width="20" height="25.5" as="geometry" />
        </mxCell>
        <mxCell id="_abYnC6LDM-r_dlBOI30-116" value="1" style="text;strokeColor=none;fillColor=none;spacingLeft=4;spacingRight=4;overflow=hidden;rotatable=0;points=[[0,0.5],[1,0.5]];portConstraint=eastwest;fontSize=12;" parent="DXSFYLd06Lns6tFT80R7-8" vertex="1">
          <mxGeometry x="278" width="20" height="30" as="geometry" />
        </mxCell>
        <mxCell id="_abYnC6LDM-r_dlBOI30-117" value="M" style="text;strokeColor=none;fillColor=none;spacingLeft=4;spacingRight=4;overflow=hidden;rotatable=0;points=[[0,0.5],[1,0.5]];portConstraint=eastwest;fontSize=12;" parent="DXSFYLd06Lns6tFT80R7-8" vertex="1">
          <mxGeometry x="278" y="22.00999999999999" width="20" height="25.5" as="geometry" />
        </mxCell>
        <mxCell id="DXSFYLd06Lns6tFT80R7-9" value="" style="group" parent="_abYnC6LDM-r_dlBOI30-1" vertex="1" connectable="0">
          <mxGeometry x="315" y="309.38" width="100" height="83.25" as="geometry" />
        </mxCell>
        <mxCell id="_abYnC6LDM-r_dlBOI30-119" value="Operario" style="whiteSpace=wrap;html=1;align=center;strokeWidth=1;" parent="DXSFYLd06Lns6tFT80R7-9" vertex="1">
          <mxGeometry y="22.75" width="100" height="40" as="geometry" />
        </mxCell>
        <mxCell id="_abYnC6LDM-r_dlBOI30-121" value="M" style="text;strokeColor=none;fillColor=none;spacingLeft=4;spacingRight=4;overflow=hidden;rotatable=0;points=[[0,0.5],[1,0.5]];portConstraint=eastwest;fontSize=12;" parent="DXSFYLd06Lns6tFT80R7-9" vertex="1">
          <mxGeometry x="51" y="0.25" width="20" height="25.5" as="geometry" />
        </mxCell>
        <mxCell id="_abYnC6LDM-r_dlBOI30-123" value="M" style="text;strokeColor=none;fillColor=none;spacingLeft=4;spacingRight=4;overflow=hidden;rotatable=0;points=[[0,0.5],[1,0.5]];portConstraint=eastwest;fontSize=12;" parent="DXSFYLd06Lns6tFT80R7-9" vertex="1">
          <mxGeometry x="25" y="57.75" width="20" height="25.5" as="geometry" />
        </mxCell>
        <mxCell id="_abYnC6LDM-r_dlBOI30-124" value="1" style="text;strokeColor=none;fillColor=none;spacingLeft=4;spacingRight=4;overflow=hidden;rotatable=0;points=[[0,0.5],[1,0.5]];portConstraint=eastwest;fontSize=12;" parent="DXSFYLd06Lns6tFT80R7-9" vertex="1">
          <mxGeometry x="30" width="20" height="25.5" as="geometry" />
        </mxCell>
        <mxCell id="kdAgWZ6vZiGVHkgTjAJX-8" value="1" style="text;strokeColor=none;fillColor=none;spacingLeft=4;spacingRight=4;overflow=hidden;rotatable=0;points=[[0,0.5],[1,0.5]];portConstraint=eastwest;fontSize=12;" parent="DXSFYLd06Lns6tFT80R7-9" vertex="1">
          <mxGeometry x="50" y="57.75" width="20" height="25.5" as="geometry" />
        </mxCell>
        <mxCell id="DXSFYLd06Lns6tFT80R7-10" value="Estrato" style="ellipse;whiteSpace=wrap;html=1;align=center;strokeColor=default;fontFamily=Helvetica;fontSize=12;fontColor=default;fillColor=default;" parent="_abYnC6LDM-r_dlBOI30-1" vertex="1">
          <mxGeometry x="640" y="684.3800000000001" width="100" height="40" as="geometry" />
        </mxCell>
        <mxCell id="DXSFYLd06Lns6tFT80R7-12" value="" style="endArrow=none;html=1;rounded=0;exitX=0.5;exitY=1;exitDx=0;exitDy=0;edgeStyle=orthogonalEdgeStyle;entryX=0.5;entryY=0;entryDx=0;entryDy=0;" parent="_abYnC6LDM-r_dlBOI30-1" source="kdAgWZ6vZiGVHkgTjAJX-2" target="DXSFYLd06Lns6tFT80R7-10" edge="1">
          <mxGeometry relative="1" as="geometry">
            <mxPoint x="700" y="632.69" as="sourcePoint" />
            <mxPoint x="775" y="585.69" as="targetPoint" />
          </mxGeometry>
        </mxCell>
        <mxCell id="DXSFYLd06Lns6tFT80R7-13" value="Costo produccion" style="ellipse;whiteSpace=wrap;html=1;align=center;strokeColor=default;fontFamily=Helvetica;fontSize=12;fontColor=default;fillColor=default;" parent="_abYnC6LDM-r_dlBOI30-1" vertex="1">
          <mxGeometry x="792.5" y="684.3800000000001" width="100" height="40" as="geometry" />
        </mxCell>
        <mxCell id="DXSFYLd06Lns6tFT80R7-14" value="" style="endArrow=none;html=1;rounded=0;exitX=0.5;exitY=0;exitDx=0;exitDy=0;edgeStyle=orthogonalEdgeStyle;entryX=0.5;entryY=1;entryDx=0;entryDy=0;" parent="_abYnC6LDM-r_dlBOI30-1" source="DXSFYLd06Lns6tFT80R7-13" target="kdAgWZ6vZiGVHkgTjAJX-3" edge="1">
          <mxGeometry relative="1" as="geometry">
            <mxPoint x="710" y="642.69" as="sourcePoint" />
            <mxPoint x="785" y="595.69" as="targetPoint" />
          </mxGeometry>
        </mxCell>
        <mxCell id="76kh3xnpLcA61JV9P22p-1" value="" style="group" parent="_abYnC6LDM-r_dlBOI30-1" vertex="1" connectable="0">
          <mxGeometry x="445" y="424.44" width="140" height="66.62" as="geometry" />
        </mxCell>
        <mxCell id="_abYnC6LDM-r_dlBOI30-11" value="Lote de Producción" style="whiteSpace=wrap;html=1;align=center;strokeWidth=1;" parent="76kh3xnpLcA61JV9P22p-1" vertex="1">
          <mxGeometry x="20" y="22.129999999999995" width="100" height="40" as="geometry" />
        </mxCell>
        <mxCell id="_abYnC6LDM-r_dlBOI30-60" value="" style="shape=link;html=1;rounded=0;elbow=vertical;exitX=0.5;exitY=0;exitDx=0;exitDy=0;entryX=0.5;entryY=1;entryDx=0;entryDy=0;edgeStyle=orthogonalEdgeStyle;" parent="76kh3xnpLcA61JV9P22p-1" source="_abYnC6LDM-r_dlBOI30-11" target="_abYnC6LDM-r_dlBOI30-58" edge="1">
          <mxGeometry relative="1" as="geometry">
            <mxPoint x="195" y="-325.75" as="sourcePoint" />
            <mxPoint x="125" y="-325.75" as="targetPoint" />
          </mxGeometry>
        </mxCell>
        <mxCell id="_abYnC6LDM-r_dlBOI30-63" value="" style="resizable=0;html=1;align=right;verticalAlign=bottom;dashed=1;strokeWidth=0;" parent="76kh3xnpLcA61JV9P22p-1" connectable="0" vertex="1">
          <mxGeometry x="-25" y="54.75" as="geometry">
            <mxPoint x="105" y="-16" as="offset" />
          </mxGeometry>
        </mxCell>
        <mxCell id="_abYnC6LDM-r_dlBOI30-67" value="M" style="text;strokeColor=none;fillColor=none;spacingLeft=4;spacingRight=4;overflow=hidden;rotatable=0;points=[[0,0.5],[1,0.5]];portConstraint=eastwest;fontSize=12;" parent="76kh3xnpLcA61JV9P22p-1" vertex="1">
          <mxGeometry x="120" y="41.120000000000005" width="20" height="20.5" as="geometry" />
        </mxCell>
        <mxCell id="_abYnC6LDM-r_dlBOI30-72" value="1" style="text;strokeColor=none;fillColor=none;spacingLeft=4;spacingRight=4;overflow=hidden;rotatable=0;points=[[0,0.5],[1,0.5]];portConstraint=eastwest;fontSize=12;" parent="76kh3xnpLcA61JV9P22p-1" vertex="1">
          <mxGeometry x="120" y="16.629999999999995" width="20" height="20.5" as="geometry" />
        </mxCell>
        <mxCell id="_abYnC6LDM-r_dlBOI30-75" value=" 1" style="text;strokeColor=none;fillColor=none;spacingLeft=4;spacingRight=4;overflow=hidden;rotatable=0;points=[[0,0.5],[1,0.5]];portConstraint=eastwest;fontSize=12;" parent="76kh3xnpLcA61JV9P22p-1" vertex="1">
          <mxGeometry y="41.120000000000005" width="20" height="25.5" as="geometry" />
        </mxCell>
        <mxCell id="_abYnC6LDM-r_dlBOI30-79" value="M" style="text;strokeColor=none;fillColor=none;spacingLeft=4;spacingRight=4;overflow=hidden;rotatable=0;points=[[0,0.5],[1,0.5]];portConstraint=eastwest;fontSize=12;" parent="76kh3xnpLcA61JV9P22p-1" vertex="1">
          <mxGeometry y="20" width="20" height="25.5" as="geometry" />
        </mxCell>
        <mxCell id="WNh4Q_Ja9qAyePe3dlcC-19" value="M" style="text;strokeColor=none;fillColor=none;spacingLeft=4;spacingRight=4;overflow=hidden;rotatable=0;points=[[0,0.5],[1,0.5]];portConstraint=eastwest;fontSize=12;" parent="76kh3xnpLcA61JV9P22p-1" vertex="1">
          <mxGeometry x="72.5" width="20" height="25.5" as="geometry" />
        </mxCell>
        <mxCell id="WNh4Q_Ja9qAyePe3dlcC-20" value="1" style="text;strokeColor=none;fillColor=none;spacingLeft=4;spacingRight=4;overflow=hidden;rotatable=0;points=[[0,0.5],[1,0.5]];portConstraint=eastwest;fontSize=12;" parent="76kh3xnpLcA61JV9P22p-1" vertex="1">
          <mxGeometry x="47.5" width="15" height="20" as="geometry" />
        </mxCell>
        <mxCell id="_G2bOVCAHAbuSn-04SFf-0" value="Fecha_inicio" style="ellipse;whiteSpace=wrap;html=1;align=center;strokeWidth=1;" parent="_abYnC6LDM-r_dlBOI30-1" vertex="1">
          <mxGeometry x="830" y="287" width="100" height="40.74" as="geometry" />
        </mxCell>
        <mxCell id="_G2bOVCAHAbuSn-04SFf-4" value="Fecha_fin" style="ellipse;whiteSpace=wrap;html=1;align=center;strokeWidth=1;" parent="_abYnC6LDM-r_dlBOI30-1" vertex="1">
          <mxGeometry x="940" y="287" width="100" height="40.74" as="geometry" />
        </mxCell>
        <mxCell id="_G2bOVCAHAbuSn-04SFf-6" value="" style="endArrow=none;html=1;rounded=0;exitX=0.5;exitY=0;exitDx=0;exitDy=0;entryX=0;entryY=1;entryDx=0;entryDy=0;edgeStyle=orthogonalEdgeStyle;" parent="_abYnC6LDM-r_dlBOI30-1" source="_G2bOVCAHAbuSn-04SFf-0" target="_abYnC6LDM-r_dlBOI30-84" edge="1">
          <mxGeometry relative="1" as="geometry">
            <mxPoint x="823" y="241" as="sourcePoint" />
            <mxPoint x="895" y="192" as="targetPoint" />
          </mxGeometry>
        </mxCell>
        <mxCell id="_G2bOVCAHAbuSn-04SFf-7" value="" style="endArrow=none;html=1;rounded=0;exitX=0.5;exitY=0;exitDx=0;exitDy=0;entryX=1;entryY=1;entryDx=0;entryDy=0;edgeStyle=orthogonalEdgeStyle;" parent="_abYnC6LDM-r_dlBOI30-1" source="_G2bOVCAHAbuSn-04SFf-4" target="_abYnC6LDM-r_dlBOI30-84" edge="1">
          <mxGeometry relative="1" as="geometry">
            <mxPoint x="833" y="251" as="sourcePoint" />
            <mxPoint x="905" y="202" as="targetPoint" />
          </mxGeometry>
        </mxCell>
        <mxCell id="_G2bOVCAHAbuSn-04SFf-8" value="Fecha_Hora_ingreso" style="ellipse;whiteSpace=wrap;html=1;strokeWidth=1;" parent="_abYnC6LDM-r_dlBOI30-1" vertex="1">
          <mxGeometry x="581" y="349.25" width="125" height="44.5" as="geometry" />
        </mxCell>
        <mxCell id="_G2bOVCAHAbuSn-04SFf-10" value="" style="endArrow=none;html=1;rounded=0;exitX=1;exitY=0.5;exitDx=0;exitDy=0;entryX=0;entryY=0.5;entryDx=0;entryDy=0;edgeStyle=orthogonalEdgeStyle;" parent="_abYnC6LDM-r_dlBOI30-1" source="_abYnC6LDM-r_dlBOI30-58" target="_G2bOVCAHAbuSn-04SFf-8" edge="1">
          <mxGeometry relative="1" as="geometry">
            <mxPoint x="552.25" y="371.19" as="sourcePoint" />
            <mxPoint x="617.25" y="304.19" as="targetPoint" />
          </mxGeometry>
        </mxCell>
        <mxCell id="sft6NZtZM9Pe-fCK1zzu-2" value="" style="endArrow=none;html=1;rounded=0;entryX=0;entryY=0.5;entryDx=0;entryDy=0;exitX=0.5;exitY=0;exitDx=0;exitDy=0;" parent="_abYnC6LDM-r_dlBOI30-1" source="_abYnC6LDM-r_dlBOI30-73" target="kdAgWZ6vZiGVHkgTjAJX-8" edge="1">
          <mxGeometry width="50" height="50" relative="1" as="geometry">
            <mxPoint x="730" y="437" as="sourcePoint" />
            <mxPoint x="780" y="387" as="targetPoint" />
          </mxGeometry>
        </mxCell>
        <mxCell id="sft6NZtZM9Pe-fCK1zzu-4" value="" style="endArrow=none;html=1;rounded=0;exitX=1;exitY=0.5;exitDx=0;exitDy=0;" parent="_abYnC6LDM-r_dlBOI30-1" source="_abYnC6LDM-r_dlBOI30-76" target="_abYnC6LDM-r_dlBOI30-33" edge="1">
          <mxGeometry width="50" height="50" relative="1" as="geometry">
            <mxPoint x="730" y="437" as="sourcePoint" />
            <mxPoint x="780" y="387" as="targetPoint" />
          </mxGeometry>
        </mxCell>
        <mxCell id="Wkcnnpj8BGWX9a-WFE9e-0" value="Cantidad" style="ellipse;whiteSpace=wrap;html=1;align=center;strokeWidth=1;" parent="_abYnC6LDM-r_dlBOI30-1" vertex="1">
          <mxGeometry x="1169" y="447" width="121" height="37.88" as="geometry" />
        </mxCell>
        <mxCell id="Wkcnnpj8BGWX9a-WFE9e-2" value="" style="endArrow=none;html=1;rounded=0;exitX=1;exitY=0.5;exitDx=0;exitDy=0;entryX=0;entryY=0.5;entryDx=0;entryDy=0;edgeStyle=orthogonalEdgeStyle;" parent="_abYnC6LDM-r_dlBOI30-1" source="_abYnC6LDM-r_dlBOI30-49" target="Wkcnnpj8BGWX9a-WFE9e-0" edge="1">
          <mxGeometry relative="1" as="geometry">
            <mxPoint x="1130" y="477.63" as="sourcePoint" />
            <mxPoint x="1200" y="456.63" as="targetPoint" />
          </mxGeometry>
        </mxCell>
      </root>
    </mxGraphModel>
  </diagram>
  <diagram name="Modelo Relacional" id="xfRl3wJ-_AAGh7hvXEZD">
    <mxGraphModel dx="1379" dy="759" grid="1" gridSize="10" guides="1" tooltips="1" connect="1" arrows="1" fold="1" page="1" pageScale="1" pageWidth="1100" pageHeight="850" background="none" math="0" shadow="0">
      <root>
        <mxCell id="ionaFyVHBQf3fTKJ2aZZ-0" />
        <mxCell id="ionaFyVHBQf3fTKJ2aZZ-1" parent="ionaFyVHBQf3fTKJ2aZZ-0" />
        <mxCell id="ionaFyVHBQf3fTKJ2aZZ-2" value="Materia_Prima" style="swimlane;html=1;fontStyle=0;childLayout=stackLayout;horizontal=1;startSize=26;fillColor=#e0e0e0;horizontalStack=0;resizeParent=1;resizeLast=0;collapsible=1;marginBottom=0;swimlaneFillColor=#ffffff;align=center;rounded=0;shadow=0;comic=0;labelBackgroundColor=none;strokeWidth=1;fontFamily=Verdana;fontSize=14" parent="ionaFyVHBQf3fTKJ2aZZ-1" vertex="1">
          <mxGeometry x="400" y="549" width="200" height="160" as="geometry">
            <mxRectangle x="400" y="549" width="140" height="30" as="alternateBounds" />
          </mxGeometry>
        </mxCell>
        <mxCell id="ionaFyVHBQf3fTKJ2aZZ-3" value="ID_MateriaPrima" style="shape=partialRectangle;top=0;left=0;right=0;bottom=1;html=1;align=left;verticalAlign=middle;fillColor=none;spacingLeft=60;spacingRight=4;whiteSpace=wrap;overflow=hidden;rotatable=0;points=[[0,0.5],[1,0.5]];portConstraint=eastwest;dropTarget=0;fontStyle=1;" parent="ionaFyVHBQf3fTKJ2aZZ-2" vertex="1">
          <mxGeometry y="26" width="200" height="30" as="geometry" />
        </mxCell>
        <mxCell id="ionaFyVHBQf3fTKJ2aZZ-4" value="PK" style="shape=partialRectangle;fontStyle=1;top=0;left=0;bottom=0;html=1;fillColor=none;align=left;verticalAlign=middle;spacingLeft=4;spacingRight=4;whiteSpace=wrap;overflow=hidden;rotatable=0;points=[];portConstraint=eastwest;part=1;" parent="ionaFyVHBQf3fTKJ2aZZ-3" vertex="1" connectable="0">
          <mxGeometry width="56" height="30" as="geometry" />
        </mxCell>
        <mxCell id="ionaFyVHBQf3fTKJ2aZZ-5" value="Nombre_MateriaPrima" style="shape=partialRectangle;top=0;left=0;right=0;bottom=0;html=1;align=left;verticalAlign=top;fillColor=none;spacingLeft=60;spacingRight=4;whiteSpace=wrap;overflow=hidden;rotatable=0;points=[[0,0.5],[1,0.5]];portConstraint=eastwest;dropTarget=0;fontStyle=0" parent="ionaFyVHBQf3fTKJ2aZZ-2" vertex="1">
          <mxGeometry y="56" width="200" height="26" as="geometry" />
        </mxCell>
        <mxCell id="ionaFyVHBQf3fTKJ2aZZ-6" value="" style="shape=partialRectangle;top=0;left=0;bottom=0;html=1;fillColor=none;align=left;verticalAlign=top;spacingLeft=4;spacingRight=4;whiteSpace=wrap;overflow=hidden;rotatable=0;points=[];portConstraint=eastwest;part=1;fontStyle=0" parent="ionaFyVHBQf3fTKJ2aZZ-5" vertex="1" connectable="0">
          <mxGeometry width="56" height="26" as="geometry" />
        </mxCell>
        <mxCell id="-ytpa2jfHgQ9x5b_wR91-2" value="Cantidad" style="shape=partialRectangle;top=0;left=0;right=0;bottom=0;html=1;align=left;verticalAlign=top;fillColor=none;spacingLeft=60;spacingRight=4;whiteSpace=wrap;overflow=hidden;rotatable=0;points=[[0,0.5],[1,0.5]];portConstraint=eastwest;dropTarget=0;fontStyle=0" parent="ionaFyVHBQf3fTKJ2aZZ-2" vertex="1">
          <mxGeometry y="82" width="200" height="26" as="geometry" />
        </mxCell>
        <mxCell id="-ytpa2jfHgQ9x5b_wR91-3" value="" style="shape=partialRectangle;top=0;left=0;bottom=0;html=1;fillColor=none;align=left;verticalAlign=top;spacingLeft=4;spacingRight=4;whiteSpace=wrap;overflow=hidden;rotatable=0;points=[];portConstraint=eastwest;part=1;fontStyle=0" parent="-ytpa2jfHgQ9x5b_wR91-2" connectable="0" vertex="1">
          <mxGeometry width="56" height="26" as="geometry" />
        </mxCell>
        <mxCell id="ionaFyVHBQf3fTKJ2aZZ-7" value="Stock_Mínimo" style="shape=partialRectangle;top=0;left=0;right=0;bottom=0;html=1;align=left;verticalAlign=top;fillColor=none;spacingLeft=60;spacingRight=4;whiteSpace=wrap;overflow=hidden;rotatable=0;points=[[0,0.5],[1,0.5]];portConstraint=eastwest;dropTarget=0;fontStyle=0" parent="ionaFyVHBQf3fTKJ2aZZ-2" vertex="1">
          <mxGeometry y="108" width="200" height="26" as="geometry" />
        </mxCell>
        <mxCell id="ionaFyVHBQf3fTKJ2aZZ-8" value="" style="shape=partialRectangle;top=0;left=0;bottom=0;html=1;fillColor=none;align=left;verticalAlign=top;spacingLeft=4;spacingRight=4;whiteSpace=wrap;overflow=hidden;rotatable=0;points=[];portConstraint=eastwest;part=1;fontStyle=0" parent="ionaFyVHBQf3fTKJ2aZZ-7" vertex="1" connectable="0">
          <mxGeometry width="56" height="26" as="geometry" />
        </mxCell>
        <mxCell id="ionaFyVHBQf3fTKJ2aZZ-9" value="&lt;span&gt;ID_Proveedor&lt;/span&gt;" style="shape=partialRectangle;top=0;left=0;right=0;bottom=0;html=1;align=left;verticalAlign=top;fillColor=none;spacingLeft=60;spacingRight=4;whiteSpace=wrap;overflow=hidden;rotatable=0;points=[[0,0.5],[1,0.5]];portConstraint=eastwest;dropTarget=0;fontStyle=0" parent="ionaFyVHBQf3fTKJ2aZZ-2" vertex="1">
          <mxGeometry y="134" width="200" height="26" as="geometry" />
        </mxCell>
        <mxCell id="ionaFyVHBQf3fTKJ2aZZ-10" value="FK" style="shape=partialRectangle;top=0;left=0;bottom=0;html=1;fillColor=none;align=left;verticalAlign=top;spacingLeft=4;spacingRight=4;whiteSpace=wrap;overflow=hidden;rotatable=0;points=[];portConstraint=eastwest;part=1;fontStyle=0" parent="ionaFyVHBQf3fTKJ2aZZ-9" vertex="1" connectable="0">
          <mxGeometry width="56" height="26" as="geometry" />
        </mxCell>
        <mxCell id="ionaFyVHBQf3fTKJ2aZZ-11" value="Supervisor" style="swimlane;html=1;fontStyle=0;childLayout=stackLayout;horizontal=1;startSize=26;fillColor=#e0e0e0;horizontalStack=0;resizeParent=1;resizeLast=0;collapsible=1;marginBottom=0;swimlaneFillColor=#ffffff;align=center;rounded=0;shadow=0;comic=0;labelBackgroundColor=none;strokeWidth=1;fontFamily=Verdana;fontSize=14;swimlaneLine=1;" parent="ionaFyVHBQf3fTKJ2aZZ-1" vertex="1">
          <mxGeometry x="60" y="48" width="180" height="84" as="geometry" />
        </mxCell>
        <mxCell id="ionaFyVHBQf3fTKJ2aZZ-12" value="ID_Supervisor " style="shape=partialRectangle;top=0;left=0;right=0;bottom=1;html=1;align=left;verticalAlign=middle;fillColor=none;spacingLeft=34;spacingRight=4;whiteSpace=wrap;overflow=hidden;rotatable=0;points=[[0,0.5],[1,0.5]];portConstraint=eastwest;dropTarget=0;fontStyle=1;" parent="ionaFyVHBQf3fTKJ2aZZ-11" vertex="1">
          <mxGeometry y="26" width="180" height="30" as="geometry" />
        </mxCell>
        <mxCell id="ionaFyVHBQf3fTKJ2aZZ-13" value="&lt;b&gt;PK&lt;/b&gt;" style="shape=partialRectangle;top=0;left=0;bottom=0;html=1;fillColor=none;align=left;verticalAlign=middle;spacingLeft=4;spacingRight=4;whiteSpace=wrap;overflow=hidden;rotatable=0;points=[];portConstraint=eastwest;part=1;labelPadding=0;fontStyle=0" parent="ionaFyVHBQf3fTKJ2aZZ-12" vertex="1" connectable="0">
          <mxGeometry width="33" height="30" as="geometry" />
        </mxCell>
        <mxCell id="ionaFyVHBQf3fTKJ2aZZ-14" value="Nombre_Supervisor" style="shape=partialRectangle;top=0;left=0;right=0;bottom=0;html=1;align=left;verticalAlign=top;fillColor=none;spacingLeft=34;spacingRight=4;whiteSpace=wrap;overflow=hidden;rotatable=0;points=[[0,0.5],[1,0.5]];portConstraint=eastwest;dropTarget=0;fontStyle=0" parent="ionaFyVHBQf3fTKJ2aZZ-11" vertex="1">
          <mxGeometry y="56" width="180" height="26" as="geometry" />
        </mxCell>
        <mxCell id="ionaFyVHBQf3fTKJ2aZZ-15" value="" style="shape=partialRectangle;top=0;left=0;bottom=0;html=1;fillColor=none;align=left;verticalAlign=top;spacingLeft=4;spacingRight=4;whiteSpace=wrap;overflow=hidden;rotatable=0;points=[];portConstraint=eastwest;part=1;fontStyle=0" parent="ionaFyVHBQf3fTKJ2aZZ-14" vertex="1" connectable="0">
          <mxGeometry width="33" height="26" as="geometry" />
        </mxCell>
        <mxCell id="ionaFyVHBQf3fTKJ2aZZ-18" value="" style="shape=partialRectangle;top=0;left=0;right=0;bottom=0;html=1;align=left;verticalAlign=top;fillColor=none;spacingLeft=34;spacingRight=4;whiteSpace=wrap;overflow=hidden;rotatable=0;points=[[0,0.5],[1,0.5]];portConstraint=eastwest;dropTarget=0;fontStyle=0" parent="ionaFyVHBQf3fTKJ2aZZ-11" vertex="1">
          <mxGeometry y="82" width="180" height="2" as="geometry" />
        </mxCell>
        <mxCell id="ionaFyVHBQf3fTKJ2aZZ-19" value="FK2" style="shape=partialRectangle;top=0;left=0;bottom=0;html=1;fillColor=none;align=left;verticalAlign=top;spacingLeft=4;spacingRight=4;whiteSpace=wrap;overflow=hidden;rotatable=0;points=[];portConstraint=eastwest;part=1;fontStyle=0" parent="ionaFyVHBQf3fTKJ2aZZ-18" vertex="1" connectable="0">
          <mxGeometry width="33" height="2" as="geometry" />
        </mxCell>
        <mxCell id="ionaFyVHBQf3fTKJ2aZZ-20" value="Operario" style="swimlane;html=1;fontStyle=0;childLayout=stackLayout;horizontal=1;startSize=26;fillColor=#e0e0e0;horizontalStack=0;resizeParent=1;resizeLast=0;collapsible=1;marginBottom=0;swimlaneFillColor=#ffffff;align=center;rounded=0;shadow=0;comic=0;labelBackgroundColor=none;strokeWidth=1;fontFamily=Verdana;fontSize=14" parent="ionaFyVHBQf3fTKJ2aZZ-1" vertex="1">
          <mxGeometry x="400" y="190" width="160" height="110" as="geometry" />
        </mxCell>
        <mxCell id="ionaFyVHBQf3fTKJ2aZZ-21" value="ID_Operario " style="shape=partialRectangle;top=0;left=0;right=0;bottom=1;html=1;align=left;verticalAlign=middle;fillColor=none;spacingLeft=34;spacingRight=4;whiteSpace=wrap;overflow=hidden;rotatable=0;points=[[0,0.5],[1,0.5]];portConstraint=eastwest;dropTarget=0;fontStyle=1;" parent="ionaFyVHBQf3fTKJ2aZZ-20" vertex="1">
          <mxGeometry y="26" width="160" height="30" as="geometry" />
        </mxCell>
        <mxCell id="ionaFyVHBQf3fTKJ2aZZ-22" value="&lt;b&gt;PK&lt;/b&gt;" style="shape=partialRectangle;top=0;left=0;bottom=0;html=1;fillColor=none;align=left;verticalAlign=middle;spacingLeft=4;spacingRight=4;whiteSpace=wrap;overflow=hidden;rotatable=0;points=[];portConstraint=eastwest;part=1;fontStyle=0" parent="ionaFyVHBQf3fTKJ2aZZ-21" vertex="1" connectable="0">
          <mxGeometry width="30" height="30" as="geometry" />
        </mxCell>
        <mxCell id="ionaFyVHBQf3fTKJ2aZZ-23" value="Nombre_Operario" style="shape=partialRectangle;top=0;left=0;right=0;bottom=0;html=1;align=left;verticalAlign=top;fillColor=none;spacingLeft=34;spacingRight=4;whiteSpace=wrap;overflow=hidden;rotatable=0;points=[[0,0.5],[1,0.5]];portConstraint=eastwest;dropTarget=0;fontStyle=0" parent="ionaFyVHBQf3fTKJ2aZZ-20" vertex="1">
          <mxGeometry y="56" width="160" height="26" as="geometry" />
        </mxCell>
        <mxCell id="ionaFyVHBQf3fTKJ2aZZ-24" value="" style="shape=partialRectangle;top=0;left=0;bottom=0;html=1;fillColor=none;align=left;verticalAlign=top;spacingLeft=4;spacingRight=4;whiteSpace=wrap;overflow=hidden;rotatable=0;points=[];portConstraint=eastwest;part=1;fontStyle=0" parent="ionaFyVHBQf3fTKJ2aZZ-23" vertex="1" connectable="0">
          <mxGeometry width="30" height="26" as="geometry" />
        </mxCell>
        <mxCell id="ionaFyVHBQf3fTKJ2aZZ-25" value="ID_Proceso " style="shape=partialRectangle;top=0;left=0;right=0;bottom=0;html=1;align=left;verticalAlign=top;fillColor=none;spacingLeft=34;spacingRight=4;whiteSpace=wrap;overflow=hidden;rotatable=0;points=[[0,0.5],[1,0.5]];portConstraint=eastwest;dropTarget=0;fontStyle=0" parent="ionaFyVHBQf3fTKJ2aZZ-20" vertex="1">
          <mxGeometry y="82" width="160" height="26" as="geometry" />
        </mxCell>
        <mxCell id="ionaFyVHBQf3fTKJ2aZZ-26" value="FK" style="shape=partialRectangle;top=0;left=0;bottom=0;html=1;fillColor=none;align=left;verticalAlign=top;spacingLeft=4;spacingRight=4;whiteSpace=wrap;overflow=hidden;rotatable=0;points=[];portConstraint=eastwest;part=1;fontStyle=0" parent="ionaFyVHBQf3fTKJ2aZZ-25" vertex="1" connectable="0">
          <mxGeometry width="30" height="26" as="geometry" />
        </mxCell>
        <mxCell id="ionaFyVHBQf3fTKJ2aZZ-27" value="" style="shape=partialRectangle;top=0;left=0;right=0;bottom=0;html=1;align=left;verticalAlign=top;fillColor=none;spacingLeft=34;spacingRight=4;whiteSpace=wrap;overflow=hidden;rotatable=0;points=[[0,0.5],[1,0.5]];portConstraint=eastwest;dropTarget=0;fontStyle=0" parent="ionaFyVHBQf3fTKJ2aZZ-20" vertex="1">
          <mxGeometry y="108" width="160" height="2" as="geometry" />
        </mxCell>
        <mxCell id="ionaFyVHBQf3fTKJ2aZZ-28" value="" style="shape=partialRectangle;top=0;left=0;bottom=0;html=1;fillColor=none;align=left;verticalAlign=top;spacingLeft=4;spacingRight=4;whiteSpace=wrap;overflow=hidden;rotatable=0;points=[];portConstraint=eastwest;part=1;fontStyle=0" parent="ionaFyVHBQf3fTKJ2aZZ-27" vertex="1" connectable="0">
          <mxGeometry width="30" height="2" as="geometry" />
        </mxCell>
        <mxCell id="ionaFyVHBQf3fTKJ2aZZ-29" value="Proceso_Producción" style="swimlane;html=1;fontStyle=0;childLayout=stackLayout;horizontal=1;startSize=26;fillColor=#e0e0e0;horizontalStack=0;resizeParent=1;resizeLast=0;collapsible=1;marginBottom=0;swimlaneFillColor=#ffffff;align=center;rounded=0;shadow=0;comic=0;labelBackgroundColor=none;strokeWidth=1;fontFamily=Verdana;fontSize=14" parent="ionaFyVHBQf3fTKJ2aZZ-1" vertex="1">
          <mxGeometry x="90" y="360" width="200" height="92" as="geometry" />
        </mxCell>
        <mxCell id="ionaFyVHBQf3fTKJ2aZZ-30" value="ID_Proceso " style="shape=partialRectangle;top=0;left=0;right=0;bottom=1;html=1;align=left;verticalAlign=middle;fillColor=none;spacingLeft=34;spacingRight=4;whiteSpace=wrap;overflow=hidden;rotatable=0;points=[[0,0.5],[1,0.5]];portConstraint=eastwest;dropTarget=0;fontStyle=1;" parent="ionaFyVHBQf3fTKJ2aZZ-29" vertex="1">
          <mxGeometry y="26" width="200" height="30" as="geometry" />
        </mxCell>
        <mxCell id="ionaFyVHBQf3fTKJ2aZZ-31" value="PK" style="shape=partialRectangle;top=0;left=0;bottom=0;html=1;fillColor=none;align=left;verticalAlign=middle;spacingLeft=4;spacingRight=4;whiteSpace=wrap;overflow=hidden;rotatable=0;points=[];portConstraint=eastwest;part=1;fontStyle=0" parent="ionaFyVHBQf3fTKJ2aZZ-30" vertex="1" connectable="0">
          <mxGeometry width="30" height="30" as="geometry" />
        </mxCell>
        <mxCell id="ionaFyVHBQf3fTKJ2aZZ-32" value="Nombre_Proceso" style="shape=partialRectangle;top=0;left=0;right=0;bottom=0;html=1;align=left;verticalAlign=top;fillColor=none;spacingLeft=34;spacingRight=4;whiteSpace=wrap;overflow=hidden;rotatable=0;points=[[0,0.5],[1,0.5]];portConstraint=eastwest;dropTarget=0;fontStyle=0" parent="ionaFyVHBQf3fTKJ2aZZ-29" vertex="1">
          <mxGeometry y="56" width="200" height="26" as="geometry" />
        </mxCell>
        <mxCell id="ionaFyVHBQf3fTKJ2aZZ-33" value="" style="shape=partialRectangle;top=0;left=0;bottom=0;html=1;fillColor=none;align=left;verticalAlign=top;spacingLeft=4;spacingRight=4;whiteSpace=wrap;overflow=hidden;rotatable=0;points=[];portConstraint=eastwest;part=1;fontStyle=0" parent="ionaFyVHBQf3fTKJ2aZZ-32" vertex="1" connectable="0">
          <mxGeometry width="30" height="26" as="geometry" />
        </mxCell>
        <mxCell id="ionaFyVHBQf3fTKJ2aZZ-34" value="" style="shape=partialRectangle;top=0;left=0;right=0;bottom=0;html=1;align=left;verticalAlign=top;fillColor=none;spacingLeft=34;spacingRight=4;whiteSpace=wrap;overflow=hidden;rotatable=0;points=[[0,0.5],[1,0.5]];portConstraint=eastwest;dropTarget=0;fontStyle=0" parent="ionaFyVHBQf3fTKJ2aZZ-29" vertex="1">
          <mxGeometry y="82" width="200" height="10" as="geometry" />
        </mxCell>
        <mxCell id="ionaFyVHBQf3fTKJ2aZZ-35" value="" style="shape=partialRectangle;top=0;left=0;bottom=0;html=1;fillColor=none;align=left;verticalAlign=top;spacingLeft=4;spacingRight=4;whiteSpace=wrap;overflow=hidden;rotatable=0;points=[];portConstraint=eastwest;part=1;fontStyle=0" parent="ionaFyVHBQf3fTKJ2aZZ-34" vertex="1" connectable="0">
          <mxGeometry width="30" height="10" as="geometry" />
        </mxCell>
        <mxCell id="ionaFyVHBQf3fTKJ2aZZ-36" value="Interviene" style="swimlane;html=1;fontStyle=0;childLayout=stackLayout;horizontal=1;startSize=26;fillColor=#e0e0e0;horizontalStack=0;resizeParent=1;resizeLast=0;collapsible=1;marginBottom=0;swimlaneFillColor=#ffffff;align=center;rounded=0;shadow=0;comic=0;labelBackgroundColor=none;strokeWidth=1;fontFamily=Verdana;fontSize=14" parent="ionaFyVHBQf3fTKJ2aZZ-1" vertex="1">
          <mxGeometry x="740" y="160" width="220" height="112" as="geometry" />
        </mxCell>
        <mxCell id="ionaFyVHBQf3fTKJ2aZZ-37" value="ID_Lote " style="shape=partialRectangle;top=0;left=0;right=0;bottom=0;html=1;align=left;verticalAlign=middle;fillColor=none;spacingLeft=60;spacingRight=4;whiteSpace=wrap;overflow=hidden;rotatable=0;points=[[0,0.5],[1,0.5]];portConstraint=eastwest;dropTarget=0;fontStyle=1;" parent="ionaFyVHBQf3fTKJ2aZZ-36" vertex="1">
          <mxGeometry y="26" width="220" height="30" as="geometry" />
        </mxCell>
        <mxCell id="ionaFyVHBQf3fTKJ2aZZ-38" value="PK,FK1" style="shape=partialRectangle;fontStyle=1;top=0;left=0;bottom=0;html=1;fillColor=none;align=left;verticalAlign=middle;spacingLeft=4;spacingRight=4;whiteSpace=wrap;overflow=hidden;rotatable=0;points=[];portConstraint=eastwest;part=1;" parent="ionaFyVHBQf3fTKJ2aZZ-37" vertex="1" connectable="0">
          <mxGeometry width="56" height="30" as="geometry" />
        </mxCell>
        <mxCell id="ionaFyVHBQf3fTKJ2aZZ-39" value="ID_Operario " style="shape=partialRectangle;top=0;left=0;right=0;bottom=1;html=1;align=left;verticalAlign=middle;fillColor=none;spacingLeft=60;spacingRight=4;whiteSpace=wrap;overflow=hidden;rotatable=0;points=[[0,0.5],[1,0.5]];portConstraint=eastwest;dropTarget=0;fontStyle=1;" parent="ionaFyVHBQf3fTKJ2aZZ-36" vertex="1">
          <mxGeometry y="56" width="220" height="30" as="geometry" />
        </mxCell>
        <mxCell id="ionaFyVHBQf3fTKJ2aZZ-40" value="PK,FK2" style="shape=partialRectangle;fontStyle=1;top=0;left=0;bottom=0;html=1;fillColor=none;align=left;verticalAlign=middle;spacingLeft=4;spacingRight=4;whiteSpace=wrap;overflow=hidden;rotatable=0;points=[];portConstraint=eastwest;part=1;" parent="ionaFyVHBQf3fTKJ2aZZ-39" vertex="1" connectable="0">
          <mxGeometry width="56" height="30" as="geometry" />
        </mxCell>
        <mxCell id="ionaFyVHBQf3fTKJ2aZZ-41" value="Fecha_Hora_Inicio_Trabajo" style="shape=partialRectangle;top=0;left=0;right=0;bottom=0;html=1;align=left;verticalAlign=top;fillColor=none;spacingLeft=60;spacingRight=4;whiteSpace=wrap;overflow=hidden;rotatable=0;points=[[0,0.5],[1,0.5]];portConstraint=eastwest;dropTarget=0;fontStyle=0" parent="ionaFyVHBQf3fTKJ2aZZ-36" vertex="1">
          <mxGeometry y="86" width="220" height="26" as="geometry" />
        </mxCell>
        <mxCell id="ionaFyVHBQf3fTKJ2aZZ-42" value="" style="shape=partialRectangle;top=0;left=0;bottom=0;html=1;fillColor=none;align=left;verticalAlign=top;spacingLeft=4;spacingRight=4;whiteSpace=wrap;overflow=hidden;rotatable=0;points=[];portConstraint=eastwest;part=1;fontStyle=0" parent="ionaFyVHBQf3fTKJ2aZZ-41" vertex="1" connectable="0">
          <mxGeometry width="56" height="26" as="geometry" />
        </mxCell>
        <mxCell id="ionaFyVHBQf3fTKJ2aZZ-43" value="Referencia" style="swimlane;html=1;fontStyle=0;childLayout=stackLayout;horizontal=1;startSize=26;fillColor=#e0e0e0;horizontalStack=0;resizeParent=1;resizeLast=0;collapsible=1;marginBottom=0;swimlaneFillColor=#ffffff;align=center;rounded=0;shadow=0;comic=0;labelBackgroundColor=none;strokeWidth=1;fontFamily=Verdana;fontSize=14" parent="ionaFyVHBQf3fTKJ2aZZ-1" vertex="1">
          <mxGeometry x="880" y="420" width="190" height="90" as="geometry" />
        </mxCell>
        <mxCell id="ionaFyVHBQf3fTKJ2aZZ-44" value="ID_Referencia" style="shape=partialRectangle;top=0;left=0;right=0;bottom=1;html=1;align=left;verticalAlign=middle;fillColor=none;spacingLeft=60;spacingRight=4;whiteSpace=wrap;overflow=hidden;rotatable=0;points=[[0,0.5],[1,0.5]];portConstraint=eastwest;dropTarget=0;fontStyle=1;" parent="ionaFyVHBQf3fTKJ2aZZ-43" vertex="1">
          <mxGeometry y="26" width="190" height="30" as="geometry" />
        </mxCell>
        <mxCell id="ionaFyVHBQf3fTKJ2aZZ-45" value="PK" style="shape=partialRectangle;fontStyle=1;top=0;left=0;bottom=0;html=1;fillColor=none;align=left;verticalAlign=middle;spacingLeft=4;spacingRight=4;whiteSpace=wrap;overflow=hidden;rotatable=0;points=[];portConstraint=eastwest;part=1;" parent="ionaFyVHBQf3fTKJ2aZZ-44" vertex="1" connectable="0">
          <mxGeometry width="56" height="30" as="geometry" />
        </mxCell>
        <mxCell id="ionaFyVHBQf3fTKJ2aZZ-48" value="Nombre_Referencia" style="shape=partialRectangle;top=0;left=0;right=0;bottom=0;html=1;align=left;verticalAlign=middle;fillColor=none;spacingLeft=60;spacingRight=4;whiteSpace=wrap;overflow=hidden;rotatable=0;points=[[0,0.5],[1,0.5]];portConstraint=eastwest;dropTarget=0;fontStyle=0;" parent="ionaFyVHBQf3fTKJ2aZZ-43" vertex="1">
          <mxGeometry y="56" width="190" height="34" as="geometry" />
        </mxCell>
        <mxCell id="ionaFyVHBQf3fTKJ2aZZ-49" value="" style="shape=partialRectangle;fontStyle=1;top=0;left=0;bottom=0;html=1;fillColor=none;align=left;verticalAlign=middle;spacingLeft=4;spacingRight=4;whiteSpace=wrap;overflow=hidden;rotatable=0;points=[];portConstraint=eastwest;part=1;" parent="ionaFyVHBQf3fTKJ2aZZ-48" vertex="1" connectable="0">
          <mxGeometry width="56" height="34" as="geometry" />
        </mxCell>
        <mxCell id="ionaFyVHBQf3fTKJ2aZZ-54" value="Proveedor" style="swimlane;html=1;fontStyle=0;childLayout=stackLayout;horizontal=1;startSize=26;fillColor=#e0e0e0;horizontalStack=0;resizeParent=1;resizeLast=0;collapsible=1;marginBottom=0;swimlaneFillColor=#ffffff;align=center;rounded=0;shadow=0;comic=0;labelBackgroundColor=none;strokeWidth=1;fontFamily=Verdana;fontSize=14" parent="ionaFyVHBQf3fTKJ2aZZ-1" vertex="1">
          <mxGeometry x="60" y="480" width="170" height="108" as="geometry" />
        </mxCell>
        <mxCell id="ionaFyVHBQf3fTKJ2aZZ-55" value="ID_Proveedor " style="shape=partialRectangle;top=0;left=0;right=0;bottom=1;html=1;align=left;verticalAlign=middle;fillColor=none;spacingLeft=60;spacingRight=4;whiteSpace=wrap;overflow=hidden;rotatable=0;points=[[0,0.5],[1,0.5]];portConstraint=eastwest;dropTarget=0;fontStyle=1;" parent="ionaFyVHBQf3fTKJ2aZZ-54" vertex="1">
          <mxGeometry y="26" width="170" height="30" as="geometry" />
        </mxCell>
        <mxCell id="ionaFyVHBQf3fTKJ2aZZ-56" value="PK" style="shape=partialRectangle;fontStyle=1;top=0;left=0;bottom=0;html=1;fillColor=none;align=left;verticalAlign=middle;spacingLeft=4;spacingRight=4;whiteSpace=wrap;overflow=hidden;rotatable=0;points=[];portConstraint=eastwest;part=1;" parent="ionaFyVHBQf3fTKJ2aZZ-55" vertex="1" connectable="0">
          <mxGeometry width="56" height="30" as="geometry" />
        </mxCell>
        <mxCell id="ionaFyVHBQf3fTKJ2aZZ-57" value="Nombre_Proveedor" style="shape=partialRectangle;top=0;left=0;right=0;bottom=0;html=1;align=left;verticalAlign=top;fillColor=none;spacingLeft=60;spacingRight=4;whiteSpace=wrap;overflow=hidden;rotatable=0;points=[[0,0.5],[1,0.5]];portConstraint=eastwest;dropTarget=0;fontStyle=0" parent="ionaFyVHBQf3fTKJ2aZZ-54" vertex="1">
          <mxGeometry y="56" width="170" height="26" as="geometry" />
        </mxCell>
        <mxCell id="ionaFyVHBQf3fTKJ2aZZ-58" value="" style="shape=partialRectangle;top=0;left=0;bottom=0;html=1;fillColor=none;align=left;verticalAlign=top;spacingLeft=4;spacingRight=4;whiteSpace=wrap;overflow=hidden;rotatable=0;points=[];portConstraint=eastwest;part=1;fontStyle=0" parent="ionaFyVHBQf3fTKJ2aZZ-57" vertex="1" connectable="0">
          <mxGeometry width="56" height="26" as="geometry" />
        </mxCell>
        <mxCell id="ionaFyVHBQf3fTKJ2aZZ-59" value="Tipo_Proveedor " style="shape=partialRectangle;top=0;left=0;right=0;bottom=0;html=1;align=left;verticalAlign=top;fillColor=none;spacingLeft=60;spacingRight=4;whiteSpace=wrap;overflow=hidden;rotatable=0;points=[[0,0.5],[1,0.5]];portConstraint=eastwest;dropTarget=0;fontStyle=0" parent="ionaFyVHBQf3fTKJ2aZZ-54" vertex="1">
          <mxGeometry y="82" width="170" height="26" as="geometry" />
        </mxCell>
        <mxCell id="ionaFyVHBQf3fTKJ2aZZ-60" value="" style="shape=partialRectangle;top=0;left=0;bottom=0;html=1;fillColor=none;align=left;verticalAlign=top;spacingLeft=4;spacingRight=4;whiteSpace=wrap;overflow=hidden;rotatable=0;points=[];portConstraint=eastwest;part=1;fontStyle=0" parent="ionaFyVHBQf3fTKJ2aZZ-59" vertex="1" connectable="0">
          <mxGeometry width="56" height="26" as="geometry" />
        </mxCell>
        <mxCell id="ionaFyVHBQf3fTKJ2aZZ-61" value="Lote_Producción" style="swimlane;html=1;fontStyle=0;childLayout=stackLayout;horizontal=1;startSize=26;fillColor=#e0e0e0;horizontalStack=0;resizeParent=1;resizeLast=0;collapsible=1;marginBottom=0;swimlaneFillColor=#ffffff;align=center;rounded=0;shadow=0;comic=0;labelBackgroundColor=none;strokeWidth=1;fontFamily=Verdana;fontSize=14" parent="ionaFyVHBQf3fTKJ2aZZ-1" vertex="1">
          <mxGeometry x="660" y="351" width="180" height="110" as="geometry" />
        </mxCell>
        <mxCell id="ionaFyVHBQf3fTKJ2aZZ-62" value="ID_Lote " style="shape=partialRectangle;top=0;left=0;right=0;bottom=1;html=1;align=left;verticalAlign=middle;fillColor=none;spacingLeft=60;spacingRight=4;whiteSpace=wrap;overflow=hidden;rotatable=0;points=[[0,0.5],[1,0.5]];portConstraint=eastwest;dropTarget=0;fontStyle=1;" parent="ionaFyVHBQf3fTKJ2aZZ-61" vertex="1">
          <mxGeometry y="26" width="180" height="30" as="geometry" />
        </mxCell>
        <mxCell id="ionaFyVHBQf3fTKJ2aZZ-63" value="PK" style="shape=partialRectangle;fontStyle=1;top=0;left=0;bottom=0;html=1;fillColor=none;align=left;verticalAlign=middle;spacingLeft=4;spacingRight=4;whiteSpace=wrap;overflow=hidden;rotatable=0;points=[];portConstraint=eastwest;part=1;" parent="ionaFyVHBQf3fTKJ2aZZ-62" vertex="1" connectable="0">
          <mxGeometry width="56" height="30" as="geometry" />
        </mxCell>
        <mxCell id="ionaFyVHBQf3fTKJ2aZZ-66" value="&lt;span&gt;ID_Referencia &lt;/span&gt;" style="shape=partialRectangle;top=0;left=0;right=0;bottom=0;html=1;align=left;verticalAlign=top;fillColor=none;spacingLeft=60;spacingRight=4;whiteSpace=wrap;overflow=hidden;rotatable=0;points=[[0,0.5],[1,0.5]];portConstraint=eastwest;dropTarget=0;fontStyle=0" parent="ionaFyVHBQf3fTKJ2aZZ-61" vertex="1">
          <mxGeometry y="56" width="180" height="26" as="geometry" />
        </mxCell>
        <mxCell id="ionaFyVHBQf3fTKJ2aZZ-67" value="FK2" style="shape=partialRectangle;top=0;left=0;bottom=0;html=1;fillColor=none;align=left;verticalAlign=top;spacingLeft=4;spacingRight=4;whiteSpace=wrap;overflow=hidden;rotatable=0;points=[];portConstraint=eastwest;part=1;fontStyle=0" parent="ionaFyVHBQf3fTKJ2aZZ-66" vertex="1" connectable="0">
          <mxGeometry width="56" height="26" as="geometry" />
        </mxCell>
        <mxCell id="ionaFyVHBQf3fTKJ2aZZ-68" value="Cant_unidades" style="shape=partialRectangle;top=0;left=0;right=0;bottom=0;html=1;align=left;verticalAlign=top;fillColor=none;spacingLeft=60;spacingRight=4;whiteSpace=wrap;overflow=hidden;rotatable=0;points=[[0,0.5],[1,0.5]];portConstraint=eastwest;dropTarget=0;fontStyle=0" parent="ionaFyVHBQf3fTKJ2aZZ-61" vertex="1">
          <mxGeometry y="82" width="180" height="26" as="geometry" />
        </mxCell>
        <mxCell id="ionaFyVHBQf3fTKJ2aZZ-69" value="" style="shape=partialRectangle;top=0;left=0;bottom=0;html=1;fillColor=none;align=left;verticalAlign=top;spacingLeft=4;spacingRight=4;whiteSpace=wrap;overflow=hidden;rotatable=0;points=[];portConstraint=eastwest;part=1;fontStyle=0" parent="ionaFyVHBQf3fTKJ2aZZ-68" connectable="0" vertex="1">
          <mxGeometry width="56" height="26" as="geometry" />
        </mxCell>
        <mxCell id="ionaFyVHBQf3fTKJ2aZZ-70" value="Turno Laboral" style="swimlane;html=1;fontStyle=0;childLayout=stackLayout;horizontal=1;startSize=26;fillColor=#e0e0e0;horizontalStack=0;resizeParent=1;resizeLast=0;collapsible=1;marginBottom=0;swimlaneFillColor=#ffffff;align=center;rounded=0;shadow=0;comic=0;labelBackgroundColor=none;strokeWidth=1;fontFamily=Verdana;fontSize=14" parent="ionaFyVHBQf3fTKJ2aZZ-1" vertex="1">
          <mxGeometry x="553" y="18" width="160" height="132" as="geometry" />
        </mxCell>
        <mxCell id="ionaFyVHBQf3fTKJ2aZZ-71" value="ID_Turno " style="shape=partialRectangle;top=0;left=0;right=0;bottom=1;html=1;align=left;verticalAlign=middle;fillColor=none;spacingLeft=34;spacingRight=4;whiteSpace=wrap;overflow=hidden;rotatable=0;points=[[0,0.5],[1,0.5]];portConstraint=eastwest;dropTarget=0;fontStyle=1;" parent="ionaFyVHBQf3fTKJ2aZZ-70" vertex="1">
          <mxGeometry y="26" width="160" height="30" as="geometry" />
        </mxCell>
        <mxCell id="ionaFyVHBQf3fTKJ2aZZ-72" value="&lt;b&gt;PK&lt;/b&gt;" style="shape=partialRectangle;top=0;left=0;bottom=0;html=1;fillColor=none;align=left;verticalAlign=middle;spacingLeft=4;spacingRight=4;whiteSpace=wrap;overflow=hidden;rotatable=0;points=[];portConstraint=eastwest;part=1;fontStyle=0" parent="ionaFyVHBQf3fTKJ2aZZ-71" vertex="1" connectable="0">
          <mxGeometry width="30" height="30" as="geometry" />
        </mxCell>
        <mxCell id="ionaFyVHBQf3fTKJ2aZZ-73" value="Nombre_Turno" style="shape=partialRectangle;top=0;left=0;right=0;bottom=0;html=1;align=left;verticalAlign=top;fillColor=none;spacingLeft=34;spacingRight=4;whiteSpace=wrap;overflow=hidden;rotatable=0;points=[[0,0.5],[1,0.5]];portConstraint=eastwest;dropTarget=0;fontStyle=0" parent="ionaFyVHBQf3fTKJ2aZZ-70" vertex="1">
          <mxGeometry y="56" width="160" height="24" as="geometry" />
        </mxCell>
        <mxCell id="ionaFyVHBQf3fTKJ2aZZ-74" value="" style="shape=partialRectangle;top=0;left=0;bottom=0;html=1;fillColor=none;align=left;verticalAlign=top;spacingLeft=4;spacingRight=4;whiteSpace=wrap;overflow=hidden;rotatable=0;points=[];portConstraint=eastwest;part=1;fontStyle=0" parent="ionaFyVHBQf3fTKJ2aZZ-73" vertex="1" connectable="0">
          <mxGeometry width="30" height="24" as="geometry" />
        </mxCell>
        <mxCell id="ionaFyVHBQf3fTKJ2aZZ-75" value="Hora_Inicio" style="shape=partialRectangle;top=0;left=0;right=0;bottom=0;html=1;align=left;verticalAlign=top;fillColor=none;spacingLeft=34;spacingRight=4;whiteSpace=wrap;overflow=hidden;rotatable=0;points=[[0,0.5],[1,0.5]];portConstraint=eastwest;dropTarget=0;fontStyle=0" parent="ionaFyVHBQf3fTKJ2aZZ-70" vertex="1">
          <mxGeometry y="80" width="160" height="26" as="geometry" />
        </mxCell>
        <mxCell id="ionaFyVHBQf3fTKJ2aZZ-76" value="" style="shape=partialRectangle;top=0;left=0;bottom=0;html=1;fillColor=none;align=left;verticalAlign=top;spacingLeft=4;spacingRight=4;whiteSpace=wrap;overflow=hidden;rotatable=0;points=[];portConstraint=eastwest;part=1;fontStyle=0" parent="ionaFyVHBQf3fTKJ2aZZ-75" vertex="1" connectable="0">
          <mxGeometry width="30" height="26" as="geometry" />
        </mxCell>
        <mxCell id="ionaFyVHBQf3fTKJ2aZZ-77" value="Hora_Fin" style="shape=partialRectangle;top=0;left=0;right=0;bottom=0;html=1;align=left;verticalAlign=top;fillColor=none;spacingLeft=34;spacingRight=4;whiteSpace=wrap;overflow=hidden;rotatable=0;points=[[0,0.5],[1,0.5]];portConstraint=eastwest;dropTarget=0;fontStyle=0" parent="ionaFyVHBQf3fTKJ2aZZ-70" vertex="1">
          <mxGeometry y="106" width="160" height="26" as="geometry" />
        </mxCell>
        <mxCell id="ionaFyVHBQf3fTKJ2aZZ-78" value="" style="shape=partialRectangle;top=0;left=0;bottom=0;html=1;fillColor=none;align=left;verticalAlign=top;spacingLeft=4;spacingRight=4;whiteSpace=wrap;overflow=hidden;rotatable=0;points=[];portConstraint=eastwest;part=1;fontStyle=0" parent="ionaFyVHBQf3fTKJ2aZZ-77" vertex="1" connectable="0">
          <mxGeometry width="30" height="26" as="geometry" />
        </mxCell>
        <mxCell id="ionaFyVHBQf3fTKJ2aZZ-79" value="" style="edgeStyle=elbowEdgeStyle;fontSize=12;html=1;endArrow=ERoneToMany;rounded=0;entryX=0;entryY=0.5;entryDx=0;entryDy=0;fontStyle=0;exitX=0;exitY=0.5;exitDx=0;exitDy=0;" parent="ionaFyVHBQf3fTKJ2aZZ-1" source="ionaFyVHBQf3fTKJ2aZZ-12" target="kHycFEFThZKZ6RZWkouY-23" edge="1">
          <mxGeometry width="100" height="100" relative="1" as="geometry">
            <mxPoint x="330" y="354" as="sourcePoint" />
            <mxPoint x="430" y="254" as="targetPoint" />
            <Array as="points">
              <mxPoint x="40" y="320" />
            </Array>
          </mxGeometry>
        </mxCell>
        <mxCell id="ionaFyVHBQf3fTKJ2aZZ-80" value="" style="edgeStyle=elbowEdgeStyle;fontSize=12;html=1;endArrow=ERmany;rounded=0;exitX=0;exitY=0.5;exitDx=0;exitDy=0;fontStyle=0;entryX=1;entryY=0.5;entryDx=0;entryDy=0;" parent="ionaFyVHBQf3fTKJ2aZZ-1" source="ionaFyVHBQf3fTKJ2aZZ-71" target="kHycFEFThZKZ6RZWkouY-12" edge="1">
          <mxGeometry width="100" height="100" relative="1" as="geometry">
            <mxPoint x="400" y="556" as="sourcePoint" />
            <mxPoint x="385" y="80" as="targetPoint" />
            <Array as="points">
              <mxPoint x="510" y="60" />
            </Array>
          </mxGeometry>
        </mxCell>
        <mxCell id="ionaFyVHBQf3fTKJ2aZZ-82" value="" style="edgeStyle=elbowEdgeStyle;fontSize=12;html=1;endArrow=ERoneToMany;rounded=0;fontStyle=0" parent="ionaFyVHBQf3fTKJ2aZZ-1" source="ionaFyVHBQf3fTKJ2aZZ-44" target="ionaFyVHBQf3fTKJ2aZZ-66" edge="1">
          <mxGeometry width="100" height="100" relative="1" as="geometry">
            <mxPoint x="400" y="556" as="sourcePoint" />
            <mxPoint x="500" y="456" as="targetPoint" />
          </mxGeometry>
        </mxCell>
        <mxCell id="ionaFyVHBQf3fTKJ2aZZ-83" value="" style="edgeStyle=elbowEdgeStyle;fontSize=12;html=1;endArrow=ERmany;rounded=0;entryX=1;entryY=0.5;entryDx=0;entryDy=0;exitX=1;exitY=0.5;exitDx=0;exitDy=0;fontStyle=0" parent="ionaFyVHBQf3fTKJ2aZZ-1" source="ionaFyVHBQf3fTKJ2aZZ-62" target="ionaFyVHBQf3fTKJ2aZZ-37" edge="1">
          <mxGeometry width="100" height="100" relative="1" as="geometry">
            <mxPoint x="400" y="556" as="sourcePoint" />
            <mxPoint x="500" y="456" as="targetPoint" />
            <Array as="points">
              <mxPoint x="1000" y="290" />
              <mxPoint x="1090" y="370" />
            </Array>
          </mxGeometry>
        </mxCell>
        <mxCell id="ionaFyVHBQf3fTKJ2aZZ-84" value="" style="edgeStyle=elbowEdgeStyle;fontSize=12;html=1;endArrow=ERoneToMany;rounded=0;entryX=0;entryY=0.5;entryDx=0;entryDy=0;exitX=1.005;exitY=0.267;exitDx=0;exitDy=0;exitPerimeter=0;fontStyle=0" parent="ionaFyVHBQf3fTKJ2aZZ-1" source="ionaFyVHBQf3fTKJ2aZZ-30" target="ionaFyVHBQf3fTKJ2aZZ-25" edge="1">
          <mxGeometry width="100" height="100" relative="1" as="geometry">
            <mxPoint x="500" y="560" as="sourcePoint" />
            <mxPoint x="600" y="460" as="targetPoint" />
            <Array as="points">
              <mxPoint x="340" y="340" />
            </Array>
          </mxGeometry>
        </mxCell>
        <mxCell id="ionaFyVHBQf3fTKJ2aZZ-85" value="" style="edgeStyle=elbowEdgeStyle;fontSize=12;html=1;endArrow=ERoneToMany;rounded=0;exitX=1;exitY=0.5;exitDx=0;exitDy=0;entryX=0;entryY=0.5;entryDx=0;entryDy=0;fontStyle=0" parent="ionaFyVHBQf3fTKJ2aZZ-1" source="ionaFyVHBQf3fTKJ2aZZ-21" target="ionaFyVHBQf3fTKJ2aZZ-39" edge="1">
          <mxGeometry width="100" height="100" relative="1" as="geometry">
            <mxPoint x="830" y="450" as="sourcePoint" />
            <mxPoint x="930" y="350" as="targetPoint" />
          </mxGeometry>
        </mxCell>
        <mxCell id="kHycFEFThZKZ6RZWkouY-11" value="Trabaja" style="swimlane;html=1;fontStyle=0;childLayout=stackLayout;horizontal=1;startSize=26;fillColor=#e0e0e0;horizontalStack=0;resizeParent=1;resizeLast=0;collapsible=1;marginBottom=0;swimlaneFillColor=#ffffff;align=center;rounded=0;shadow=0;comic=0;labelBackgroundColor=none;strokeWidth=1;fontFamily=Verdana;fontSize=14" parent="ionaFyVHBQf3fTKJ2aZZ-1" vertex="1">
          <mxGeometry x="300" y="18" width="180" height="138" as="geometry" />
        </mxCell>
        <mxCell id="kHycFEFThZKZ6RZWkouY-12" value="ID_Turno " style="shape=partialRectangle;top=0;left=0;right=0;bottom=0;html=1;align=left;verticalAlign=middle;fillColor=none;spacingLeft=60;spacingRight=4;whiteSpace=wrap;overflow=hidden;rotatable=0;points=[[0,0.5],[1,0.5]];portConstraint=eastwest;dropTarget=0;fontStyle=1;" parent="kHycFEFThZKZ6RZWkouY-11" vertex="1">
          <mxGeometry y="26" width="180" height="30" as="geometry" />
        </mxCell>
        <mxCell id="kHycFEFThZKZ6RZWkouY-13" value="PK,FK1" style="shape=partialRectangle;fontStyle=1;top=0;left=0;bottom=0;html=1;fillColor=none;align=left;verticalAlign=middle;spacingLeft=4;spacingRight=4;whiteSpace=wrap;overflow=hidden;rotatable=0;points=[];portConstraint=eastwest;part=1;" parent="kHycFEFThZKZ6RZWkouY-12" connectable="0" vertex="1">
          <mxGeometry width="56" height="30" as="geometry" />
        </mxCell>
        <mxCell id="kHycFEFThZKZ6RZWkouY-14" value="ID_Supervisor " style="shape=partialRectangle;top=0;left=0;right=0;bottom=1;html=1;align=left;verticalAlign=middle;fillColor=none;spacingLeft=60;spacingRight=4;whiteSpace=wrap;overflow=hidden;rotatable=0;points=[[0,0.5],[1,0.5]];portConstraint=eastwest;dropTarget=0;fontStyle=1;" parent="kHycFEFThZKZ6RZWkouY-11" vertex="1">
          <mxGeometry y="56" width="180" height="30" as="geometry" />
        </mxCell>
        <mxCell id="kHycFEFThZKZ6RZWkouY-15" value="PK,FK2" style="shape=partialRectangle;fontStyle=1;top=0;left=0;bottom=0;html=1;fillColor=none;align=left;verticalAlign=middle;spacingLeft=4;spacingRight=4;whiteSpace=wrap;overflow=hidden;rotatable=0;points=[];portConstraint=eastwest;part=1;" parent="kHycFEFThZKZ6RZWkouY-14" connectable="0" vertex="1">
          <mxGeometry width="56" height="30" as="geometry" />
        </mxCell>
        <mxCell id="kHycFEFThZKZ6RZWkouY-16" value="Fecha_inicio" style="shape=partialRectangle;top=0;left=0;right=0;bottom=0;html=1;align=left;verticalAlign=top;fillColor=none;spacingLeft=60;spacingRight=4;whiteSpace=wrap;overflow=hidden;rotatable=0;points=[[0,0.5],[1,0.5]];portConstraint=eastwest;dropTarget=0;fontStyle=0" parent="kHycFEFThZKZ6RZWkouY-11" vertex="1">
          <mxGeometry y="86" width="180" height="26" as="geometry" />
        </mxCell>
        <mxCell id="kHycFEFThZKZ6RZWkouY-17" value="" style="shape=partialRectangle;top=0;left=0;bottom=0;html=1;fillColor=none;align=left;verticalAlign=top;spacingLeft=4;spacingRight=4;whiteSpace=wrap;overflow=hidden;rotatable=0;points=[];portConstraint=eastwest;part=1;fontStyle=0" parent="kHycFEFThZKZ6RZWkouY-16" connectable="0" vertex="1">
          <mxGeometry width="56" height="26" as="geometry" />
        </mxCell>
        <mxCell id="-ytpa2jfHgQ9x5b_wR91-0" value="Fecha_fin" style="shape=partialRectangle;top=0;left=0;right=0;bottom=0;html=1;align=left;verticalAlign=top;fillColor=none;spacingLeft=60;spacingRight=4;whiteSpace=wrap;overflow=hidden;rotatable=0;points=[[0,0.5],[1,0.5]];portConstraint=eastwest;dropTarget=0;fontStyle=0" parent="kHycFEFThZKZ6RZWkouY-11" vertex="1">
          <mxGeometry y="112" width="180" height="26" as="geometry" />
        </mxCell>
        <mxCell id="-ytpa2jfHgQ9x5b_wR91-1" value="" style="shape=partialRectangle;top=0;left=0;bottom=0;html=1;fillColor=none;align=left;verticalAlign=top;spacingLeft=4;spacingRight=4;whiteSpace=wrap;overflow=hidden;rotatable=0;points=[];portConstraint=eastwest;part=1;fontStyle=0" parent="-ytpa2jfHgQ9x5b_wR91-0" connectable="0" vertex="1">
          <mxGeometry width="56" height="26" as="geometry" />
        </mxCell>
        <mxCell id="kHycFEFThZKZ6RZWkouY-19" value="" style="edgeStyle=elbowEdgeStyle;fontSize=12;html=1;endArrow=ERoneToMany;rounded=0;exitX=1;exitY=0.5;exitDx=0;exitDy=0;entryX=0;entryY=0.5;entryDx=0;entryDy=0;fontStyle=0" parent="ionaFyVHBQf3fTKJ2aZZ-1" source="ionaFyVHBQf3fTKJ2aZZ-12" target="kHycFEFThZKZ6RZWkouY-14" edge="1">
          <mxGeometry width="100" height="100" relative="1" as="geometry">
            <mxPoint x="240" y="180" as="sourcePoint" />
            <mxPoint x="290" y="210" as="targetPoint" />
          </mxGeometry>
        </mxCell>
        <mxCell id="kHycFEFThZKZ6RZWkouY-20" value="Supervisa" style="swimlane;html=1;fontStyle=0;childLayout=stackLayout;horizontal=1;startSize=26;fillColor=#e0e0e0;horizontalStack=0;resizeParent=1;resizeLast=0;collapsible=1;marginBottom=0;swimlaneFillColor=#ffffff;align=center;rounded=0;shadow=0;comic=0;labelBackgroundColor=none;strokeWidth=1;fontFamily=Verdana;fontSize=14" parent="ionaFyVHBQf3fTKJ2aZZ-1" vertex="1">
          <mxGeometry x="100" y="210" width="180" height="112" as="geometry" />
        </mxCell>
        <mxCell id="kHycFEFThZKZ6RZWkouY-23" value="ID_Supervisor " style="shape=partialRectangle;top=0;left=0;right=0;bottom=1;html=1;align=left;verticalAlign=middle;fillColor=none;spacingLeft=60;spacingRight=4;whiteSpace=wrap;overflow=hidden;rotatable=0;points=[[0,0.5],[1,0.5]];portConstraint=eastwest;dropTarget=0;fontStyle=1;" parent="kHycFEFThZKZ6RZWkouY-20" vertex="1">
          <mxGeometry y="26" width="180" height="30" as="geometry" />
        </mxCell>
        <mxCell id="kHycFEFThZKZ6RZWkouY-24" value="PK,FK1" style="shape=partialRectangle;fontStyle=1;top=0;left=0;bottom=0;html=1;fillColor=none;align=left;verticalAlign=middle;spacingLeft=4;spacingRight=4;whiteSpace=wrap;overflow=hidden;rotatable=0;points=[];portConstraint=eastwest;part=1;" parent="kHycFEFThZKZ6RZWkouY-23" connectable="0" vertex="1">
          <mxGeometry width="56" height="30" as="geometry" />
        </mxCell>
        <mxCell id="kHycFEFThZKZ6RZWkouY-21" value="ID_Proceso " style="shape=partialRectangle;top=0;left=0;right=0;bottom=0;html=1;align=left;verticalAlign=middle;fillColor=none;spacingLeft=60;spacingRight=4;whiteSpace=wrap;overflow=hidden;rotatable=0;points=[[0,0.5],[1,0.5]];portConstraint=eastwest;dropTarget=0;fontStyle=1;" parent="kHycFEFThZKZ6RZWkouY-20" vertex="1">
          <mxGeometry y="56" width="180" height="30" as="geometry" />
        </mxCell>
        <mxCell id="kHycFEFThZKZ6RZWkouY-22" value="PK,FK2" style="shape=partialRectangle;fontStyle=1;top=0;left=0;bottom=0;html=1;fillColor=none;align=left;verticalAlign=middle;spacingLeft=4;spacingRight=4;whiteSpace=wrap;overflow=hidden;rotatable=0;points=[];portConstraint=eastwest;part=1;" parent="kHycFEFThZKZ6RZWkouY-21" connectable="0" vertex="1">
          <mxGeometry width="56" height="30" as="geometry" />
        </mxCell>
        <mxCell id="kHycFEFThZKZ6RZWkouY-25" value="" style="shape=partialRectangle;top=0;left=0;right=0;bottom=0;html=1;align=left;verticalAlign=top;fillColor=none;spacingLeft=60;spacingRight=4;whiteSpace=wrap;overflow=hidden;rotatable=0;points=[[0,0.5],[1,0.5]];portConstraint=eastwest;dropTarget=0;fontStyle=0" parent="kHycFEFThZKZ6RZWkouY-20" vertex="1">
          <mxGeometry y="86" width="180" height="26" as="geometry" />
        </mxCell>
        <mxCell id="kHycFEFThZKZ6RZWkouY-26" value="" style="shape=partialRectangle;top=0;left=0;bottom=0;html=1;fillColor=none;align=left;verticalAlign=top;spacingLeft=4;spacingRight=4;whiteSpace=wrap;overflow=hidden;rotatable=0;points=[];portConstraint=eastwest;part=1;fontStyle=0" parent="kHycFEFThZKZ6RZWkouY-25" connectable="0" vertex="1">
          <mxGeometry width="56" height="26" as="geometry" />
        </mxCell>
        <mxCell id="kHycFEFThZKZ6RZWkouY-27" value="" style="edgeStyle=elbowEdgeStyle;fontSize=12;html=1;endArrow=ERoneToMany;rounded=0;entryX=0;entryY=0.5;entryDx=0;entryDy=0;fontStyle=0;exitX=0;exitY=0.5;exitDx=0;exitDy=0;" parent="ionaFyVHBQf3fTKJ2aZZ-1" source="ionaFyVHBQf3fTKJ2aZZ-30" target="kHycFEFThZKZ6RZWkouY-21" edge="1">
          <mxGeometry width="100" height="100" relative="1" as="geometry">
            <mxPoint x="60" y="120" as="sourcePoint" />
            <mxPoint x="90" y="282" as="targetPoint" />
            <Array as="points">
              <mxPoint x="40" y="351" />
            </Array>
          </mxGeometry>
        </mxCell>
        <mxCell id="kHycFEFThZKZ6RZWkouY-28" value="Tiene_asignado" style="swimlane;html=1;fontStyle=0;childLayout=stackLayout;horizontal=1;startSize=26;fillColor=#e0e0e0;horizontalStack=0;resizeParent=1;resizeLast=0;collapsible=1;marginBottom=0;swimlaneFillColor=#ffffff;align=center;rounded=0;shadow=0;comic=0;labelBackgroundColor=none;strokeWidth=1;fontFamily=Verdana;fontSize=14" parent="ionaFyVHBQf3fTKJ2aZZ-1" vertex="1">
          <mxGeometry x="400" y="351" width="190" height="112" as="geometry" />
        </mxCell>
        <mxCell id="kHycFEFThZKZ6RZWkouY-29" value="ID_Lote " style="shape=partialRectangle;top=0;left=0;right=0;bottom=0;html=1;align=left;verticalAlign=middle;fillColor=none;spacingLeft=60;spacingRight=4;whiteSpace=wrap;overflow=hidden;rotatable=0;points=[[0,0.5],[1,0.5]];portConstraint=eastwest;dropTarget=0;fontStyle=1;" parent="kHycFEFThZKZ6RZWkouY-28" vertex="1">
          <mxGeometry y="26" width="190" height="30" as="geometry" />
        </mxCell>
        <mxCell id="kHycFEFThZKZ6RZWkouY-30" value="PK,FK1" style="shape=partialRectangle;fontStyle=1;top=0;left=0;bottom=0;html=1;fillColor=none;align=left;verticalAlign=middle;spacingLeft=4;spacingRight=4;whiteSpace=wrap;overflow=hidden;rotatable=0;points=[];portConstraint=eastwest;part=1;" parent="kHycFEFThZKZ6RZWkouY-29" connectable="0" vertex="1">
          <mxGeometry width="56" height="30" as="geometry" />
        </mxCell>
        <mxCell id="kHycFEFThZKZ6RZWkouY-31" value="ID_Proceso " style="shape=partialRectangle;top=0;left=0;right=0;bottom=1;html=1;align=left;verticalAlign=middle;fillColor=none;spacingLeft=60;spacingRight=4;whiteSpace=wrap;overflow=hidden;rotatable=0;points=[[0,0.5],[1,0.5]];portConstraint=eastwest;dropTarget=0;fontStyle=1;" parent="kHycFEFThZKZ6RZWkouY-28" vertex="1">
          <mxGeometry y="56" width="190" height="30" as="geometry" />
        </mxCell>
        <mxCell id="kHycFEFThZKZ6RZWkouY-32" value="PK,FK2" style="shape=partialRectangle;fontStyle=1;top=0;left=0;bottom=0;html=1;fillColor=none;align=left;verticalAlign=middle;spacingLeft=4;spacingRight=4;whiteSpace=wrap;overflow=hidden;rotatable=0;points=[];portConstraint=eastwest;part=1;" parent="kHycFEFThZKZ6RZWkouY-31" connectable="0" vertex="1">
          <mxGeometry width="56" height="30" as="geometry" />
        </mxCell>
        <mxCell id="kHycFEFThZKZ6RZWkouY-33" value="Fecha_Hora_ingreso" style="shape=partialRectangle;top=0;left=0;right=0;bottom=0;html=1;align=left;verticalAlign=top;fillColor=none;spacingLeft=60;spacingRight=4;whiteSpace=wrap;overflow=hidden;rotatable=0;points=[[0,0.5],[1,0.5]];portConstraint=eastwest;dropTarget=0;fontStyle=0" parent="kHycFEFThZKZ6RZWkouY-28" vertex="1">
          <mxGeometry y="86" width="190" height="26" as="geometry" />
        </mxCell>
        <mxCell id="kHycFEFThZKZ6RZWkouY-34" value="" style="shape=partialRectangle;top=0;left=0;bottom=0;html=1;fillColor=none;align=left;verticalAlign=top;spacingLeft=4;spacingRight=4;whiteSpace=wrap;overflow=hidden;rotatable=0;points=[];portConstraint=eastwest;part=1;fontStyle=0" parent="kHycFEFThZKZ6RZWkouY-33" connectable="0" vertex="1">
          <mxGeometry width="56" height="26" as="geometry" />
        </mxCell>
        <mxCell id="kHycFEFThZKZ6RZWkouY-35" value="" style="edgeStyle=elbowEdgeStyle;fontSize=12;html=1;endArrow=ERoneToMany;rounded=0;exitX=0;exitY=0.5;exitDx=0;exitDy=0;entryX=1;entryY=0.5;entryDx=0;entryDy=0;fontStyle=0" parent="ionaFyVHBQf3fTKJ2aZZ-1" source="ionaFyVHBQf3fTKJ2aZZ-62" target="kHycFEFThZKZ6RZWkouY-29" edge="1">
          <mxGeometry width="100" height="100" relative="1" as="geometry">
            <mxPoint x="580" y="231" as="sourcePoint" />
            <mxPoint x="790" y="231" as="targetPoint" />
          </mxGeometry>
        </mxCell>
        <mxCell id="kHycFEFThZKZ6RZWkouY-36" value="" style="edgeStyle=elbowEdgeStyle;fontSize=12;html=1;endArrow=ERoneToMany;rounded=0;exitX=1;exitY=0.5;exitDx=0;exitDy=0;entryX=0;entryY=0.5;entryDx=0;entryDy=0;fontStyle=0" parent="ionaFyVHBQf3fTKJ2aZZ-1" source="ionaFyVHBQf3fTKJ2aZZ-30" target="kHycFEFThZKZ6RZWkouY-31" edge="1">
          <mxGeometry width="100" height="100" relative="1" as="geometry">
            <mxPoint x="410" y="424" as="sourcePoint" />
            <mxPoint x="320" y="424" as="targetPoint" />
            <Array as="points">
              <mxPoint x="340" y="420" />
            </Array>
          </mxGeometry>
        </mxCell>
        <mxCell id="kHycFEFThZKZ6RZWkouY-37" value="Emplea" style="swimlane;html=1;fontStyle=0;childLayout=stackLayout;horizontal=1;startSize=26;fillColor=#e0e0e0;horizontalStack=0;resizeParent=1;resizeLast=0;collapsible=1;marginBottom=0;swimlaneFillColor=#ffffff;align=center;rounded=0;shadow=0;comic=0;labelBackgroundColor=none;strokeWidth=1;fontFamily=Verdana;fontSize=14" parent="ionaFyVHBQf3fTKJ2aZZ-1" vertex="1">
          <mxGeometry x="660" y="510" width="180" height="86" as="geometry" />
        </mxCell>
        <mxCell id="kHycFEFThZKZ6RZWkouY-38" value="ID_Referencia" style="shape=partialRectangle;top=0;left=0;right=0;bottom=0;html=1;align=left;verticalAlign=middle;fillColor=none;spacingLeft=60;spacingRight=4;whiteSpace=wrap;overflow=hidden;rotatable=0;points=[[0,0.5],[1,0.5]];portConstraint=eastwest;dropTarget=0;fontStyle=1;" parent="kHycFEFThZKZ6RZWkouY-37" vertex="1">
          <mxGeometry y="26" width="180" height="30" as="geometry" />
        </mxCell>
        <mxCell id="kHycFEFThZKZ6RZWkouY-39" value="PK,FK1" style="shape=partialRectangle;fontStyle=1;top=0;left=0;bottom=0;html=1;fillColor=none;align=left;verticalAlign=middle;spacingLeft=4;spacingRight=4;whiteSpace=wrap;overflow=hidden;rotatable=0;points=[];portConstraint=eastwest;part=1;" parent="kHycFEFThZKZ6RZWkouY-38" connectable="0" vertex="1">
          <mxGeometry width="56" height="30" as="geometry" />
        </mxCell>
        <mxCell id="kHycFEFThZKZ6RZWkouY-40" value="ID_MateriaPrima" style="shape=partialRectangle;top=0;left=0;right=0;bottom=1;html=1;align=left;verticalAlign=middle;fillColor=none;spacingLeft=60;spacingRight=4;whiteSpace=wrap;overflow=hidden;rotatable=0;points=[[0,0.5],[1,0.5]];portConstraint=eastwest;dropTarget=0;fontStyle=1;" parent="kHycFEFThZKZ6RZWkouY-37" vertex="1">
          <mxGeometry y="56" width="180" height="30" as="geometry" />
        </mxCell>
        <mxCell id="kHycFEFThZKZ6RZWkouY-41" value="PK,FK2" style="shape=partialRectangle;fontStyle=1;top=0;left=0;bottom=0;html=1;fillColor=none;align=left;verticalAlign=middle;spacingLeft=4;spacingRight=4;whiteSpace=wrap;overflow=hidden;rotatable=0;points=[];portConstraint=eastwest;part=1;" parent="kHycFEFThZKZ6RZWkouY-40" connectable="0" vertex="1">
          <mxGeometry width="56" height="30" as="geometry" />
        </mxCell>
        <mxCell id="kHycFEFThZKZ6RZWkouY-44" value="" style="edgeStyle=elbowEdgeStyle;fontSize=12;html=1;endArrow=ERoneToMany;rounded=0;exitX=0.001;exitY=0.748;exitDx=0;exitDy=0;entryX=1;entryY=0.5;entryDx=0;entryDy=0;fontStyle=0;exitPerimeter=0;" parent="ionaFyVHBQf3fTKJ2aZZ-1" source="ionaFyVHBQf3fTKJ2aZZ-44" target="kHycFEFThZKZ6RZWkouY-38" edge="1">
          <mxGeometry width="100" height="100" relative="1" as="geometry">
            <mxPoint x="820" y="500" as="sourcePoint" />
            <mxPoint x="730" y="500" as="targetPoint" />
          </mxGeometry>
        </mxCell>
        <mxCell id="kHycFEFThZKZ6RZWkouY-46" value="" style="edgeStyle=elbowEdgeStyle;fontSize=12;html=1;endArrow=ERoneToMany;rounded=0;exitX=1;exitY=0.5;exitDx=0;exitDy=0;entryX=0;entryY=0.767;entryDx=0;entryDy=0;fontStyle=0;entryPerimeter=0;" parent="ionaFyVHBQf3fTKJ2aZZ-1" source="ionaFyVHBQf3fTKJ2aZZ-3" target="kHycFEFThZKZ6RZWkouY-40" edge="1">
          <mxGeometry width="100" height="100" relative="1" as="geometry">
            <mxPoint x="610" y="553" as="sourcePoint" />
            <mxPoint x="553" y="595" as="targetPoint" />
          </mxGeometry>
        </mxCell>
        <mxCell id="kHycFEFThZKZ6RZWkouY-47" value="Suministra" style="swimlane;html=1;fontStyle=0;childLayout=stackLayout;horizontal=1;startSize=26;fillColor=#e0e0e0;horizontalStack=0;resizeParent=1;resizeLast=0;collapsible=1;marginBottom=0;swimlaneFillColor=#ffffff;align=center;rounded=0;shadow=0;comic=0;labelBackgroundColor=none;strokeWidth=1;fontFamily=Verdana;fontSize=14" parent="ionaFyVHBQf3fTKJ2aZZ-1" vertex="1">
          <mxGeometry x="160" y="610" width="180" height="112" as="geometry" />
        </mxCell>
        <mxCell id="kHycFEFThZKZ6RZWkouY-48" value="ID_MateriaPrima" style="shape=partialRectangle;top=0;left=0;right=0;bottom=0;html=1;align=left;verticalAlign=middle;fillColor=none;spacingLeft=60;spacingRight=4;whiteSpace=wrap;overflow=hidden;rotatable=0;points=[[0,0.5],[1,0.5]];portConstraint=eastwest;dropTarget=0;fontStyle=1;" parent="kHycFEFThZKZ6RZWkouY-47" vertex="1">
          <mxGeometry y="26" width="180" height="30" as="geometry" />
        </mxCell>
        <mxCell id="kHycFEFThZKZ6RZWkouY-49" value="PK,FK1" style="shape=partialRectangle;fontStyle=1;top=0;left=0;bottom=0;html=1;fillColor=none;align=left;verticalAlign=middle;spacingLeft=4;spacingRight=4;whiteSpace=wrap;overflow=hidden;rotatable=0;points=[];portConstraint=eastwest;part=1;" parent="kHycFEFThZKZ6RZWkouY-48" connectable="0" vertex="1">
          <mxGeometry width="56" height="30" as="geometry" />
        </mxCell>
        <mxCell id="kHycFEFThZKZ6RZWkouY-50" value="ID_Proveedor " style="shape=partialRectangle;top=0;left=0;right=0;bottom=1;html=1;align=left;verticalAlign=middle;fillColor=none;spacingLeft=60;spacingRight=4;whiteSpace=wrap;overflow=hidden;rotatable=0;points=[[0,0.5],[1,0.5]];portConstraint=eastwest;dropTarget=0;fontStyle=1;" parent="kHycFEFThZKZ6RZWkouY-47" vertex="1">
          <mxGeometry y="56" width="180" height="30" as="geometry" />
        </mxCell>
        <mxCell id="kHycFEFThZKZ6RZWkouY-51" value="PK,FK2" style="shape=partialRectangle;fontStyle=1;top=0;left=0;bottom=0;html=1;fillColor=none;align=left;verticalAlign=middle;spacingLeft=4;spacingRight=4;whiteSpace=wrap;overflow=hidden;rotatable=0;points=[];portConstraint=eastwest;part=1;" parent="kHycFEFThZKZ6RZWkouY-50" connectable="0" vertex="1">
          <mxGeometry width="56" height="30" as="geometry" />
        </mxCell>
        <mxCell id="kHycFEFThZKZ6RZWkouY-52" value="Cantidad" style="shape=partialRectangle;top=0;left=0;right=0;bottom=0;html=1;align=left;verticalAlign=top;fillColor=none;spacingLeft=60;spacingRight=4;whiteSpace=wrap;overflow=hidden;rotatable=0;points=[[0,0.5],[1,0.5]];portConstraint=eastwest;dropTarget=0;fontStyle=0" parent="kHycFEFThZKZ6RZWkouY-47" vertex="1">
          <mxGeometry y="86" width="180" height="26" as="geometry" />
        </mxCell>
        <mxCell id="kHycFEFThZKZ6RZWkouY-53" value="" style="shape=partialRectangle;top=0;left=0;bottom=0;html=1;fillColor=none;align=left;verticalAlign=top;spacingLeft=4;spacingRight=4;whiteSpace=wrap;overflow=hidden;rotatable=0;points=[];portConstraint=eastwest;part=1;fontStyle=0" parent="kHycFEFThZKZ6RZWkouY-52" connectable="0" vertex="1">
          <mxGeometry width="56" height="26" as="geometry" />
        </mxCell>
        <mxCell id="kHycFEFThZKZ6RZWkouY-54" value="" style="edgeStyle=elbowEdgeStyle;fontSize=12;html=1;endArrow=ERoneToMany;rounded=0;exitX=0;exitY=0.5;exitDx=0;exitDy=0;entryX=1;entryY=0.5;entryDx=0;entryDy=0;fontStyle=0" parent="ionaFyVHBQf3fTKJ2aZZ-1" source="ionaFyVHBQf3fTKJ2aZZ-3" target="kHycFEFThZKZ6RZWkouY-48" edge="1">
          <mxGeometry width="100" height="100" relative="1" as="geometry">
            <mxPoint x="360" y="520" as="sourcePoint" />
            <mxPoint x="270" y="520" as="targetPoint" />
          </mxGeometry>
        </mxCell>
        <mxCell id="kHycFEFThZKZ6RZWkouY-55" value="" style="edgeStyle=elbowEdgeStyle;fontSize=12;html=1;endArrow=ERoneToMany;rounded=0;exitX=0;exitY=0.5;exitDx=0;exitDy=0;entryX=0;entryY=0.5;entryDx=0;entryDy=0;fontStyle=0" parent="ionaFyVHBQf3fTKJ2aZZ-1" source="ionaFyVHBQf3fTKJ2aZZ-55" target="kHycFEFThZKZ6RZWkouY-50" edge="1">
          <mxGeometry width="100" height="100" relative="1" as="geometry">
            <mxPoint x="130" y="630" as="sourcePoint" />
            <mxPoint x="40" y="630" as="targetPoint" />
            <Array as="points">
              <mxPoint x="30" y="590" />
            </Array>
          </mxGeometry>
        </mxCell>
        <mxCell id="-ytpa2jfHgQ9x5b_wR91-4" value="Ordinaria" style="swimlane;html=1;fontStyle=0;childLayout=stackLayout;horizontal=1;startSize=26;fillColor=#e0e0e0;horizontalStack=0;resizeParent=1;resizeLast=0;collapsible=1;marginBottom=0;swimlaneFillColor=#ffffff;align=center;rounded=0;shadow=0;comic=0;labelBackgroundColor=none;strokeWidth=1;fontFamily=Verdana;fontSize=14" parent="ionaFyVHBQf3fTKJ2aZZ-1" vertex="1">
          <mxGeometry x="890" y="544" width="160" height="78" as="geometry" />
        </mxCell>
        <mxCell id="-ytpa2jfHgQ9x5b_wR91-7" value="ID_Referencia" style="shape=partialRectangle;top=0;left=0;right=0;bottom=1;html=1;align=left;verticalAlign=top;fillColor=none;spacingLeft=60;spacingRight=4;whiteSpace=wrap;overflow=hidden;rotatable=0;points=[[0,0.5],[1,0.5]];portConstraint=eastwest;dropTarget=0;fontStyle=0" parent="-ytpa2jfHgQ9x5b_wR91-4" vertex="1">
          <mxGeometry y="26" width="160" height="26" as="geometry" />
        </mxCell>
        <mxCell id="-ytpa2jfHgQ9x5b_wR91-8" value="PK, FK" style="shape=partialRectangle;top=0;left=0;bottom=0;html=1;fillColor=none;align=left;verticalAlign=top;spacingLeft=4;spacingRight=4;whiteSpace=wrap;overflow=hidden;rotatable=0;points=[];portConstraint=eastwest;part=1;fontStyle=0" parent="-ytpa2jfHgQ9x5b_wR91-7" connectable="0" vertex="1">
          <mxGeometry width="50" height="26" as="geometry" />
        </mxCell>
        <mxCell id="ZL7-imNOBzqUcSZZgyqm-9" style="shape=partialRectangle;top=0;left=0;right=0;bottom=0;html=1;align=left;verticalAlign=top;fillColor=none;spacingLeft=60;spacingRight=4;whiteSpace=wrap;overflow=hidden;rotatable=0;points=[[0,0.5],[1,0.5]];portConstraint=eastwest;dropTarget=0;fontStyle=0" parent="-ytpa2jfHgQ9x5b_wR91-4" vertex="1">
          <mxGeometry y="52" width="160" height="26" as="geometry" />
        </mxCell>
        <mxCell id="-ytpa2jfHgQ9x5b_wR91-13" value="Lujo" style="swimlane;html=1;fontStyle=0;childLayout=stackLayout;horizontal=1;startSize=26;fillColor=#e0e0e0;horizontalStack=0;resizeParent=1;resizeLast=0;collapsible=1;marginBottom=0;swimlaneFillColor=#ffffff;align=center;rounded=0;shadow=0;comic=0;labelBackgroundColor=none;strokeWidth=1;fontFamily=Verdana;fontSize=14" parent="ionaFyVHBQf3fTKJ2aZZ-1" vertex="1">
          <mxGeometry x="890" y="640" width="160" height="80" as="geometry" />
        </mxCell>
        <mxCell id="kMAd63w4A-7T75Seknkg-1" value="ID_Referencia" style="shape=partialRectangle;top=0;left=0;right=0;bottom=1;html=1;align=left;verticalAlign=top;fillColor=none;spacingLeft=60;spacingRight=4;whiteSpace=wrap;overflow=hidden;rotatable=0;points=[[0,0.5],[1,0.5]];portConstraint=eastwest;dropTarget=0;fontStyle=0" parent="-ytpa2jfHgQ9x5b_wR91-13" vertex="1">
          <mxGeometry y="26" width="160" height="26" as="geometry" />
        </mxCell>
        <mxCell id="kMAd63w4A-7T75Seknkg-2" value="PK, FK" style="shape=partialRectangle;top=0;left=0;bottom=0;html=1;fillColor=none;align=left;verticalAlign=top;spacingLeft=4;spacingRight=4;whiteSpace=wrap;overflow=hidden;rotatable=0;points=[];portConstraint=eastwest;part=1;fontStyle=0" parent="kMAd63w4A-7T75Seknkg-1" connectable="0" vertex="1">
          <mxGeometry width="50" height="26" as="geometry" />
        </mxCell>
        <mxCell id="-ytpa2jfHgQ9x5b_wR91-14" value="Estrato" style="shape=partialRectangle;top=0;left=0;right=0;bottom=0;html=1;align=left;verticalAlign=top;fillColor=none;spacingLeft=60;spacingRight=4;whiteSpace=wrap;overflow=hidden;rotatable=0;points=[[0,0.5],[1,0.5]];portConstraint=eastwest;dropTarget=0;fontStyle=0" parent="-ytpa2jfHgQ9x5b_wR91-13" vertex="1">
          <mxGeometry y="52" width="160" height="26" as="geometry" />
        </mxCell>
        <mxCell id="-ytpa2jfHgQ9x5b_wR91-15" value="" style="shape=partialRectangle;top=0;left=0;bottom=0;html=1;fillColor=none;align=left;verticalAlign=top;spacingLeft=4;spacingRight=4;whiteSpace=wrap;overflow=hidden;rotatable=0;points=[];portConstraint=eastwest;part=1;fontStyle=0" parent="-ytpa2jfHgQ9x5b_wR91-14" connectable="0" vertex="1">
          <mxGeometry width="50" height="26" as="geometry" />
        </mxCell>
        <mxCell id="ZL7-imNOBzqUcSZZgyqm-10" value="Costo prod" style="shape=partialRectangle;top=0;left=0;right=0;bottom=0;html=1;align=left;verticalAlign=top;fillColor=none;spacingLeft=60;spacingRight=4;whiteSpace=wrap;overflow=hidden;rotatable=0;points=[[0,0.5],[1,0.5]];portConstraint=eastwest;dropTarget=0;fontStyle=0" parent="ionaFyVHBQf3fTKJ2aZZ-1" vertex="1">
          <mxGeometry x="890" y="596" width="150" height="26" as="geometry" />
        </mxCell>
        <mxCell id="ZL7-imNOBzqUcSZZgyqm-11" value="" style="shape=partialRectangle;top=0;left=0;bottom=0;html=1;fillColor=none;align=left;verticalAlign=top;spacingLeft=4;spacingRight=4;whiteSpace=wrap;overflow=hidden;rotatable=0;points=[];portConstraint=eastwest;part=1;fontStyle=0" parent="ZL7-imNOBzqUcSZZgyqm-10" connectable="0" vertex="1">
          <mxGeometry width="50" height="26" as="geometry" />
        </mxCell>
        <mxCell id="c8EvX00tLyx0gQtY8zGz-2" value="" style="edgeStyle=elbowEdgeStyle;fontSize=12;html=1;endArrow=ERoneToMany;rounded=0;fontStyle=0;exitX=1;exitY=0.5;exitDx=0;exitDy=0;entryX=1;entryY=0.5;entryDx=0;entryDy=0;" parent="ionaFyVHBQf3fTKJ2aZZ-1" source="ionaFyVHBQf3fTKJ2aZZ-44" target="-ytpa2jfHgQ9x5b_wR91-7" edge="1">
          <mxGeometry width="100" height="100" relative="1" as="geometry">
            <mxPoint x="1080" y="561" as="sourcePoint" />
            <mxPoint x="1040" y="520" as="targetPoint" />
            <Array as="points">
              <mxPoint x="1080" y="520" />
            </Array>
          </mxGeometry>
        </mxCell>
        <mxCell id="c8EvX00tLyx0gQtY8zGz-3" value="" style="edgeStyle=elbowEdgeStyle;fontSize=12;html=1;endArrow=ERoneToMany;rounded=0;fontStyle=0;exitX=1;exitY=0.5;exitDx=0;exitDy=0;entryX=1;entryY=0.5;entryDx=0;entryDy=0;" parent="ionaFyVHBQf3fTKJ2aZZ-1" source="ionaFyVHBQf3fTKJ2aZZ-44" target="kMAd63w4A-7T75Seknkg-1" edge="1">
          <mxGeometry width="100" height="100" relative="1" as="geometry">
            <mxPoint x="1070" y="560" as="sourcePoint" />
            <mxPoint x="1050" y="682" as="targetPoint" />
            <Array as="points">
              <mxPoint x="1080" y="619" />
            </Array>
          </mxGeometry>
        </mxCell>
      </root>
    </mxGraphModel>
  </diagram>
  <diagram id="_GaqzANS39nT_UX64jcB" name="Página-5">
    <mxGraphModel grid="1" page="1" gridSize="10" guides="1" tooltips="1" connect="1" arrows="1" fold="1" pageScale="1" pageWidth="1400" pageHeight="850" math="0" shadow="0">
      <root>
        <mxCell id="0" />
        <mxCell id="1" parent="0" />
        <mxCell id="mytmtKvxbAtgPC0hdcha-3" value="" style="edgeStyle=orthogonalEdgeStyle;rounded=0;orthogonalLoop=1;jettySize=auto;html=1;" edge="1" parent="1" source="mytmtKvxbAtgPC0hdcha-1" target="mytmtKvxbAtgPC0hdcha-2">
          <mxGeometry relative="1" as="geometry" />
        </mxCell>
        <mxCell id="mytmtKvxbAtgPC0hdcha-5" value="" style="edgeStyle=orthogonalEdgeStyle;rounded=0;orthogonalLoop=1;jettySize=auto;html=1;" edge="1" parent="1" source="mytmtKvxbAtgPC0hdcha-1" target="mytmtKvxbAtgPC0hdcha-8">
          <mxGeometry relative="1" as="geometry">
            <mxPoint x="550" y="280" as="targetPoint" />
            <Array as="points">
              <mxPoint x="440" y="280" />
            </Array>
          </mxGeometry>
        </mxCell>
        <mxCell id="mytmtKvxbAtgPC0hdcha-1" value="US-0001198" style="ellipse;whiteSpace=wrap;html=1;" vertex="1" parent="1">
          <mxGeometry x="380" y="140" width="120" height="80" as="geometry" />
        </mxCell>
        <mxCell id="mytmtKvxbAtgPC0hdcha-7" value="" style="edgeStyle=orthogonalEdgeStyle;rounded=0;orthogonalLoop=1;jettySize=auto;html=1;" edge="1" parent="1" source="mytmtKvxbAtgPC0hdcha-2" target="mytmtKvxbAtgPC0hdcha-6">
          <mxGeometry relative="1" as="geometry" />
        </mxCell>
        <mxCell id="mytmtKvxbAtgPC0hdcha-2" value="US-0001193" style="ellipse;whiteSpace=wrap;html=1;" vertex="1" parent="1">
          <mxGeometry x="550" y="140" width="120" height="80" as="geometry" />
        </mxCell>
        <mxCell id="mytmtKvxbAtgPC0hdcha-6" value="US-0001136" style="ellipse;whiteSpace=wrap;html=1;" vertex="1" parent="1">
          <mxGeometry x="750" y="140" width="120" height="80" as="geometry" />
        </mxCell>
        <mxCell id="mytmtKvxbAtgPC0hdcha-11" value="" style="edgeStyle=orthogonalEdgeStyle;rounded=0;orthogonalLoop=1;jettySize=auto;html=1;" edge="1" parent="1" source="mytmtKvxbAtgPC0hdcha-8" target="mytmtKvxbAtgPC0hdcha-10">
          <mxGeometry relative="1" as="geometry" />
        </mxCell>
        <mxCell id="mytmtKvxbAtgPC0hdcha-8" value="US-0001059" style="ellipse;whiteSpace=wrap;html=1;" vertex="1" parent="1">
          <mxGeometry x="750" y="240" width="120" height="80" as="geometry" />
        </mxCell>
        <mxCell id="mytmtKvxbAtgPC0hdcha-10" value="US-0001042" style="ellipse;whiteSpace=wrap;html=1;" vertex="1" parent="1">
          <mxGeometry x="950" y="240" width="120" height="80" as="geometry" />
        </mxCell>
        <mxCell id="mytmtKvxbAtgPC0hdcha-12" value="UATminorco" style="swimlane;whiteSpace=wrap;html=1;" vertex="1" parent="1">
          <mxGeometry x="730" y="110" width="370" height="240" as="geometry" />
        </mxCell>
        <mxCell id="mytmtKvxbAtgPC0hdcha-13" value="Qaq1co" style="swimlane;whiteSpace=wrap;html=1;" vertex="1" parent="1">
          <mxGeometry x="370" y="110" width="350" height="240" as="geometry" />
        </mxCell>
      </root>
    </mxGraphModel>
  </diagram>
</mxfile>
